<?xml version="1.0" encoding="utf-8"?>
<!-- Generator: Adobe Illustrator 16.0.0, SVG Export Plug-In . SVG Version: 6.00 Build 0)  -->
<!DOCTYPE svg PUBLIC "-//W3C//DTD SVG 1.1//EN" "http://www.w3.org/Graphics/SVG/1.1/DTD/svg11.dtd">
<svg version="1.1" id="Layer_1" xmlns="http://www.w3.org/2000/svg" xmlns:xlink="http://www.w3.org/1999/xlink" x="0px" y="0px"
	 width="350px" height="32.054px" viewBox="0 0 350 32.054" enable-background="new 0 0 350 32.054" xml:space="preserve">
<g opacity="0.8">
	<path fill-rule="evenodd" clip-rule="evenodd" fill="#704F50" d="M58.29,26.021c-3.183,0.736-5.987,0.761-8.708-0.385
		c-0.646-0.274-1.268-0.671-1.807-1.125c-1.223-1.031-1.226-2.377-0.089-3.497c1.007-0.995,2.256-1.581,3.574-1.995
		c2.233-0.7,4.498-1.306,6.741-1.982c2.296-0.692,4.524-1.55,6.472-2.999c1.514-1.127,2.644-2.553,3.291-4.341
		c0.269-0.747,0.803-0.865,1.34-0.273c0.926,1.02,1.192,2.277,1.211,3.598c0.04,2.704-1.084,4.969-2.794,6.958
		c-2.018,2.346-4.446,4.174-7.314,5.375C59.474,25.661,58.704,25.879,58.29,26.021z"/>
	<path fill-rule="evenodd" clip-rule="evenodd" fill="#704F50" d="M57.717,6.651c2.343-0.479,5.039-0.739,7.729,0.026
		c0.528,0.149,1.039,0.438,1.491,0.757c0.535,0.379,0.603,0.945,0.238,1.493c-0.78,1.173-1.864,2.011-3.072,2.701
		c-2.05,1.172-4.308,1.805-6.531,2.529c-2.288,0.744-4.603,1.412-6.711,2.62c-1.559,0.895-2.922,2.002-3.961,3.484
		c-0.124,0.175-0.265,0.344-0.425,0.485c-0.406,0.357-0.731,0.246-0.845-0.292c-0.245-1.158-0.044-2.282,0.341-3.37
		c1.054-2.975,2.904-5.352,5.364-7.321C53.147,8.313,55.134,7.295,57.717,6.651z"/>
</g>
<g opacity="0.8">
	<path fill-rule="evenodd" clip-rule="evenodd" fill="#F9F0AF" d="M139.634,26.021c-3.182,0.736-5.987,0.761-8.707-0.385
		c-0.647-0.274-1.269-0.671-1.807-1.125c-1.223-1.031-1.225-2.377-0.088-3.497c1.006-0.995,2.256-1.581,3.574-1.995
		c2.233-0.7,4.498-1.306,6.74-1.982c2.298-0.692,4.525-1.55,6.472-2.999c1.515-1.127,2.644-2.553,3.291-4.341
		c0.269-0.747,0.804-0.865,1.342-0.273c0.925,1.02,1.191,2.277,1.21,3.598c0.04,2.704-1.083,4.969-2.794,6.958
		c-2.018,2.346-4.447,4.174-7.314,5.375C140.818,25.661,140.049,25.879,139.634,26.021z"/>
	<path fill-rule="evenodd" clip-rule="evenodd" fill="#F9F0AF" d="M139.062,6.651c2.343-0.479,5.039-0.739,7.729,0.026
		c0.529,0.149,1.039,0.438,1.49,0.757c0.536,0.379,0.603,0.945,0.238,1.493c-0.779,1.173-1.863,2.011-3.071,2.701
		c-2.05,1.172-4.308,1.805-6.532,2.529c-2.287,0.744-4.602,1.412-6.71,2.62c-1.56,0.895-2.923,2.002-3.961,3.484
		c-0.124,0.175-0.265,0.344-0.425,0.485c-0.406,0.357-0.731,0.246-0.846-0.292c-0.245-1.158-0.044-2.282,0.341-3.37
		c1.054-2.975,2.904-5.352,5.365-7.321C134.491,8.313,136.479,7.295,139.062,6.651z"/>
</g>
<g opacity="0.8">
	<path fill-rule="evenodd" clip-rule="evenodd" fill="#704F50" d="M98.073,25.997c3.151,0.861,5.952,0.997,8.716-0.041
		c0.658-0.248,1.295-0.62,1.85-1.052c1.262-0.982,1.318-2.327,0.228-3.491c-0.967-1.035-2.193-1.67-3.493-2.135
		c-2.205-0.788-4.443-1.483-6.657-2.248c-2.268-0.782-4.459-1.727-6.349-3.251c-1.468-1.187-2.541-2.655-3.117-4.467
		c-0.239-0.757-0.768-0.897-1.329-0.326c-0.965,0.983-1.281,2.229-1.352,3.547c-0.146,2.699,0.887,5.007,2.517,7.062
		c1.924,2.424,4.278,4.346,7.096,5.659C96.904,25.588,97.665,25.838,98.073,25.997z"/>
	<path fill-rule="evenodd" clip-rule="evenodd" fill="#704F50" d="M99.411,6.664c-2.322-0.571-5.006-0.937-7.724-0.28
		c-0.534,0.128-1.055,0.396-1.52,0.698c-0.549,0.357-0.639,0.92-0.296,1.482c0.733,1.201,1.783,2.083,2.963,2.82
		c2.001,1.252,4.232,1.974,6.426,2.785c2.256,0.834,4.542,1.593,6.603,2.884c1.522,0.955,2.841,2.116,3.82,3.638
		c0.117,0.18,0.25,0.354,0.406,0.5c0.391,0.373,0.721,0.275,0.855-0.258c0.291-1.146,0.134-2.278-0.208-3.38
		c-0.935-3.013-2.69-5.463-5.071-7.527C103.912,8.505,101.966,7.409,99.411,6.664z"/>
</g>
<g opacity="0.8">
	<path fill-rule="evenodd" clip-rule="evenodd" fill="#F9F0AF" d="M175.605,25.997c3.151,0.861,5.951,0.997,8.715-0.041
		c0.658-0.248,1.294-0.62,1.85-1.052c1.263-0.982,1.318-2.327,0.229-3.491c-0.968-1.035-2.193-1.67-3.493-2.135
		c-2.205-0.788-4.443-1.483-6.657-2.248c-2.269-0.782-4.46-1.727-6.348-3.251c-1.468-1.187-2.542-2.655-3.117-4.467
		c-0.24-0.757-0.769-0.897-1.329-0.326c-0.965,0.983-1.282,2.229-1.353,3.547c-0.146,2.699,0.888,5.007,2.517,7.062
		c1.924,2.424,4.279,4.346,7.097,5.659C174.435,25.588,175.196,25.838,175.605,25.997z"/>
	<path fill-rule="evenodd" clip-rule="evenodd" fill="#F9F0AF" d="M176.941,6.664c-2.322-0.571-5.005-0.937-7.724-0.28
		c-0.534,0.128-1.055,0.396-1.52,0.698c-0.549,0.357-0.639,0.92-0.297,1.482c0.733,1.201,1.783,2.083,2.962,2.82
		c2.001,1.252,4.233,1.974,6.427,2.785c2.256,0.834,4.541,1.593,6.601,2.884c1.522,0.955,2.842,2.116,3.821,3.638
		c0.116,0.18,0.251,0.354,0.406,0.5c0.391,0.373,0.72,0.275,0.855-0.258c0.291-1.146,0.134-2.278-0.208-3.38
		c-0.935-3.013-2.689-5.463-5.07-7.527C181.443,8.505,179.498,7.409,176.941,6.664z"/>
</g>
<g opacity="0.8">
	<path fill-rule="evenodd" clip-rule="evenodd" fill="#704F50" d="M18.258,25.997c3.151,0.861,5.952,0.997,8.716-0.041
		c0.657-0.248,1.294-0.62,1.85-1.052c1.262-0.982,1.318-2.327,0.228-3.491c-0.967-1.035-2.193-1.67-3.494-2.135
		c-2.204-0.788-4.443-1.483-6.657-2.248c-2.268-0.782-4.459-1.727-6.348-3.251c-1.468-1.187-2.541-2.655-3.117-4.467
		C9.198,8.554,8.668,8.414,8.108,8.985c-0.965,0.983-1.281,2.229-1.352,3.547c-0.146,2.699,0.886,5.007,2.517,7.062
		c1.924,2.424,4.278,4.346,7.097,5.659C17.089,25.588,17.85,25.838,18.258,25.997z"/>
	<path fill-rule="evenodd" clip-rule="evenodd" fill="#704F50" d="M19.595,6.664c-2.321-0.571-5.004-0.937-7.724-0.28
		c-0.534,0.128-1.055,0.396-1.52,0.698c-0.549,0.357-0.64,0.92-0.297,1.482c0.732,1.201,1.784,2.083,2.963,2.82
		c2.002,1.252,4.232,1.974,6.427,2.785c2.255,0.834,4.542,1.593,6.601,2.884c1.523,0.955,2.842,2.116,3.821,3.638
		c0.117,0.18,0.251,0.354,0.405,0.5c0.391,0.373,0.721,0.275,0.856-0.258c0.291-1.146,0.134-2.278-0.208-3.38
		c-0.935-3.013-2.689-5.463-5.07-7.527C24.097,8.505,22.152,7.409,19.595,6.664z"/>
</g>
<g opacity="0.8">
	<path fill-rule="evenodd" clip-rule="evenodd" fill="#F9F0AF" d="M215.636,25.492c-3.184,0.736-5.987,0.76-8.709-0.386
		c-0.646-0.272-1.268-0.67-1.806-1.125c-1.223-1.031-1.225-2.377-0.09-3.497c1.008-0.995,2.257-1.582,3.575-1.995
		c2.232-0.7,4.498-1.306,6.74-1.982c2.297-0.692,4.524-1.55,6.472-2.999c1.514-1.127,2.645-2.553,3.292-4.341
		c0.269-0.748,0.802-0.866,1.34-0.274c0.926,1.021,1.192,2.278,1.211,3.599c0.039,2.703-1.085,4.968-2.795,6.957
		c-2.019,2.346-4.446,4.174-7.313,5.374C216.82,25.131,216.05,25.349,215.636,25.492z"/>
	<path fill-rule="evenodd" clip-rule="evenodd" fill="#F9F0AF" d="M215.063,6.121c2.343-0.479,5.038-0.739,7.729,0.025
		c0.528,0.149,1.038,0.438,1.491,0.757c0.534,0.379,0.603,0.945,0.238,1.493c-0.779,1.172-1.865,2.011-3.072,2.7
		c-2.049,1.172-4.308,1.805-6.531,2.529c-2.288,0.744-4.602,1.412-6.711,2.62c-1.559,0.895-2.922,2.002-3.961,3.484
		c-0.123,0.176-0.265,0.344-0.425,0.485c-0.406,0.357-0.732,0.246-0.846-0.292c-0.245-1.158-0.044-2.282,0.341-3.37
		c1.055-2.975,2.904-5.352,5.364-7.321C210.493,7.783,212.48,6.765,215.063,6.121z"/>
</g>
<g opacity="0.8">
	<path fill-rule="evenodd" clip-rule="evenodd" fill="#704F50" d="M296.979,25.492c-3.182,0.736-5.986,0.76-8.707-0.386
		c-0.646-0.272-1.27-0.67-1.806-1.125c-1.224-1.031-1.226-2.377-0.09-3.497c1.007-0.995,2.257-1.582,3.574-1.995
		c2.233-0.7,4.499-1.306,6.739-1.982c2.298-0.692,4.526-1.55,6.474-2.999c1.514-1.127,2.644-2.553,3.29-4.341
		c0.269-0.748,0.804-0.866,1.341-0.274c0.925,1.021,1.192,2.278,1.211,3.599c0.039,2.703-1.083,4.968-2.794,6.957
		c-2.019,2.346-4.446,4.174-7.314,5.374C298.164,25.131,297.395,25.349,296.979,25.492z"/>
	<path fill-rule="evenodd" clip-rule="evenodd" fill="#704F50" d="M296.407,6.121c2.344-0.479,5.039-0.739,7.73,0.025
		c0.528,0.149,1.038,0.438,1.49,0.757c0.534,0.379,0.604,0.945,0.237,1.493c-0.779,1.172-1.863,2.011-3.071,2.7
		c-2.05,1.172-4.307,1.805-6.53,2.529c-2.288,0.744-4.604,1.412-6.712,2.62c-1.559,0.895-2.922,2.002-3.961,3.484
		c-0.123,0.176-0.266,0.344-0.426,0.485c-0.405,0.357-0.731,0.246-0.846-0.292c-0.243-1.158-0.043-2.282,0.343-3.37
		c1.053-2.975,2.902-5.352,5.363-7.321C291.837,7.783,293.824,6.765,296.407,6.121z"/>
</g>
<g opacity="0.8">
	<path fill-rule="evenodd" clip-rule="evenodd" fill="#704F50" d="M255.419,25.467c3.151,0.86,5.953,0.997,8.717-0.041
		c0.656-0.248,1.294-0.62,1.849-1.052c1.263-0.982,1.318-2.327,0.228-3.491c-0.966-1.035-2.192-1.67-3.492-2.135
		c-2.204-0.788-4.444-1.483-6.657-2.248c-2.268-0.782-4.459-1.727-6.349-3.251c-1.468-1.187-2.541-2.655-3.116-4.468
		c-0.238-0.757-0.768-0.896-1.329-0.326c-0.965,0.983-1.281,2.229-1.352,3.547c-0.146,2.699,0.887,5.007,2.516,7.062
		c1.926,2.424,4.279,4.347,7.098,5.66C254.25,25.059,255.012,25.308,255.419,25.467z"/>
	<path fill-rule="evenodd" clip-rule="evenodd" fill="#704F50" d="M256.757,6.134c-2.322-0.571-5.006-0.937-7.724-0.28
		c-0.535,0.128-1.057,0.396-1.521,0.698c-0.55,0.357-0.64,0.92-0.296,1.482c0.732,1.201,1.783,2.082,2.962,2.82
		c2.002,1.252,4.233,1.974,6.426,2.785c2.256,0.834,4.543,1.593,6.603,2.884c1.522,0.955,2.842,2.116,3.821,3.638
		c0.115,0.18,0.25,0.354,0.405,0.5c0.391,0.373,0.721,0.275,0.854-0.258c0.291-1.147,0.135-2.278-0.206-3.38
		c-0.936-3.013-2.691-5.463-5.071-7.527C261.258,7.975,259.313,6.879,256.757,6.134z"/>
</g>
<g opacity="0.8">
	<path fill-rule="evenodd" clip-rule="evenodd" fill="#704F50" d="M332.95,25.467c3.151,0.86,5.952,0.997,8.716-0.041
		c0.658-0.248,1.294-0.62,1.85-1.052c1.263-0.982,1.318-2.327,0.229-3.491c-0.967-1.035-2.193-1.67-3.493-2.135
		c-2.205-0.788-4.443-1.483-6.657-2.248c-2.268-0.782-4.459-1.727-6.348-3.251c-1.469-1.187-2.541-2.655-3.116-4.468
		c-0.24-0.757-0.77-0.896-1.33-0.326c-0.966,0.983-1.281,2.229-1.353,3.547c-0.146,2.699,0.888,5.007,2.518,7.062
		c1.924,2.424,4.278,4.347,7.097,5.66C331.781,25.059,332.542,25.308,332.95,25.467z"/>
	<path fill-rule="evenodd" clip-rule="evenodd" fill="#704F50" d="M334.287,6.134c-2.321-0.571-5.005-0.937-7.724-0.28
		c-0.533,0.128-1.055,0.396-1.52,0.698c-0.549,0.357-0.64,0.92-0.297,1.482c0.733,1.201,1.783,2.082,2.962,2.82
		c2.003,1.252,4.233,1.974,6.427,2.785c2.257,0.834,4.543,1.593,6.603,2.884c1.522,0.955,2.841,2.116,3.821,3.638
		c0.115,0.18,0.25,0.354,0.405,0.5c0.39,0.373,0.721,0.275,0.855-0.258c0.291-1.147,0.134-2.278-0.208-3.38
		c-0.935-3.013-2.688-5.463-5.069-7.527C338.789,7.975,336.844,6.879,334.287,6.134z"/>
</g>
</svg>
