<?xml version="1.0" encoding="utf-8"?>
<!-- Generator: Adobe Illustrator 16.0.0, SVG Export Plug-In . SVG Version: 6.00 Build 0)  -->
<!DOCTYPE svg PUBLIC "-//W3C//DTD SVG 1.1//EN" "http://www.w3.org/Graphics/SVG/1.1/DTD/svg11.dtd">
<svg version="1.1" xmlns="http://www.w3.org/2000/svg" xmlns:xlink="http://www.w3.org/1999/xlink" x="0px" y="0px"
	 width="327.809px" height="373.393px" viewBox="0 0 327.809 373.393" enable-background="new 0 0 327.809 373.393"
	 xml:space="preserve">
<g id="bg-beverage">
	<circle fill="#96281B" cx="163.905" cy="212.039" r="148.899"/>
</g>
<g id="text-beverage">
	<g>
		<path fill="#704F50" d="M45.706,82.428l1.399-0.559c1.128,3.322,1.857,6.379,2.19,9.166c0.333,2.789,0.304,5.115-0.088,6.979
			c-0.392,1.865-1.145,3.257-2.263,4.173c-1.117,0.92-2.499,1.289-4.147,1.112c-1.647-0.177-3.636-1.032-5.964-2.568
			c-2.329-1.534-4.838-3.714-7.526-6.535c-2.641-2.778-4.706-5.432-6.194-7.96c-1.49-2.527-2.38-4.652-2.674-6.375
			c-0.293-1.723-0.281-3.258,0.039-4.607c0.319-1.348,0.812-2.371,1.475-3.069c0.665-0.698,1.366-1.147,2.105-1.351
			c3.151-0.935,6.999,1.695,11.544,7.887l-1.72,0.339c-0.099-0.13-0.251-0.31-0.458-0.536c-0.208-0.227-0.576-0.608-1.107-1.146
			c-0.53-0.538-1.035-0.975-1.51-1.311c-0.474-0.336-0.986-0.567-1.541-0.694c-0.552-0.127-1.001-0.021-1.345,0.316
			c-0.194,0.172-0.344,0.34-0.448,0.504c-0.104,0.165-0.154,0.562-0.153,1.186c0.002,0.626,0.187,1.337,0.551,2.133
			c0.364,0.799,1.079,1.928,2.141,3.389c1.064,1.462,2.454,3.086,4.172,4.873c2.691,2.867,4.91,4.852,6.658,5.955
			c1.747,1.104,3.125,1.619,4.13,1.549c1.01-0.069,1.653-0.721,1.934-1.954c0.28-1.232,0.316-2.757,0.108-4.577
			C46.804,86.929,46.369,84.824,45.706,82.428z"/>
		<path fill="#704F50" d="M63.452,64.014l0.879-0.384c0.138,0.306,0.297,0.721,0.478,1.245c0.18,0.524,0.46,1.482,0.842,2.874
			s0.653,2.655,0.813,3.793c0.16,1.137,0.151,2.263-0.028,3.377c-0.179,1.114-0.624,1.874-1.335,2.279
			c-0.829,0.467-1.997,0.249-3.505-0.651c-1.508-0.9-2.943-2.012-4.308-3.335c-1.366-1.322-2.712-2.429-4.038-3.316
			s-2.256-1.1-2.789-0.637c-0.436,0.38-0.352,1.16,0.249,2.338c0.601,1.181,1.413,2.527,2.433,4.042
			c1.023,1.516,1.984,3.084,2.884,4.705c0.9,1.62,1.386,3.229,1.459,4.827c0.071,1.598-0.498,2.9-1.705,3.909
			c-0.754,0.699-1.771,0.788-3.055,0.268c-1.284-0.521-2.657-1.486-4.117-2.896c-1.461-1.409-3.02-3.063-4.675-4.965
			c-1.654-1.9-3.24-3.893-4.757-5.978c-1.517-2.083-2.996-4.063-4.436-5.938c-1.44-1.874-2.656-3.465-3.646-4.773
			c-0.99-1.309-1.78-2.154-2.368-2.535c0.128-0.196,0.314-0.434,0.562-0.713c0.246-0.278,0.742-0.688,1.484-1.229
			c0.743-0.54,1.479-0.904,2.208-1.093s1.6-0.094,2.609,0.282c1.009,0.378,1.95,1.166,2.822,2.362
			c4.269,5.733,7.935,10.457,11,14.173c-2.853-5.135-3.397-8.472-1.628-10.01c0.943-0.822,2.25-0.801,3.919,0.065
			c1.669,0.867,3.248,2.056,4.736,3.569c1.488,1.514,2.958,2.873,4.411,4.076c1.453,1.204,2.462,1.666,3.028,1.387
			c0.683-0.34,0.986-1.434,0.909-3.282c-0.076-1.848-0.318-3.616-0.725-5.306L63.452,64.014z"/>
		<path fill="#704F50" d="M80.28,50.174l1.042,0.52c-0.063,0.195-0.16,0.454-0.293,0.773c-0.009,0.045-0.04,0.114-0.094,0.208
			c-0.053,0.094-0.084,0.163-0.092,0.207l-0.201,0.48c-0.009,0.045-0.042,0.126-0.099,0.241c-0.058,0.116-0.105,0.205-0.141,0.268
			s-0.08,0.168-0.133,0.32c-0.053,0.151-0.097,0.258-0.133,0.32c-0.205,0.33-0.315,0.539-0.333,0.628
			c-0.018,0.09-0.07,0.212-0.159,0.368c-0.09,0.156-0.151,0.265-0.187,0.327c-0.009,0.044-0.034,0.109-0.073,0.193
			c-0.041,0.085-0.074,0.136-0.1,0.153l-0.107,0.188c-0.026,0.018-0.044,0.05-0.053,0.094c-0.009,0.045-0.027,0.076-0.053,0.094
			c-0.09,0.098-0.162,0.223-0.214,0.373c-0.089,0.099-0.161,0.223-0.213,0.375c-0.206,0.33-0.538,0.842-1,1.537
			c-0.294,0.427-0.672,0.931-1.134,1.51c-0.063,0.08-0.153,0.189-0.273,0.327c-0.12,0.138-0.207,0.226-0.26,0.261
			c0.241,0.534,0.441,1.095,0.602,1.683c0.724,2.527,0.655,4.88-0.206,7.058c-0.862,2.178-2.276,3.558-4.244,4.137
			c-1.966,0.582-3.895,0.181-5.783-1.202c-1.888-1.382-3.203-3.351-3.945-5.905c-0.725-2.527-0.654-4.881,0.206-7.059
			c0.862-2.178,2.276-3.556,4.243-4.137c1.326-0.385,2.688-0.281,4.087,0.31c1.398,0.591,2.614,1.544,3.649,2.86l0.12-0.08
			c0.578-0.578,0.97-0.975,1.173-1.189c0.197-0.168,0.557-0.583,1.081-1.243c0.125-0.16,0.205-0.271,0.241-0.334
			c0.125-0.16,0.213-0.258,0.267-0.294l0.107-0.188c0.026-0.018,0.049-0.041,0.066-0.073c0.018-0.031,0.04-0.056,0.066-0.074
			c0.009-0.044,0.038-0.103,0.087-0.173c0.049-0.07,0.087-0.116,0.114-0.134l0.44-0.642c0.125-0.16,0.252-0.343,0.386-0.548
			c0.143-0.249,0.258-0.423,0.347-0.521c0.142-0.249,0.245-0.414,0.306-0.494c0.009-0.044,0.046-0.118,0.114-0.22
			c0.067-0.104,0.104-0.177,0.113-0.222l0.281-0.36L80.28,50.174z M73.996,69.024c0.81-0.232,1.333-0.979,1.574-2.239
			c0.238-1.26,0.131-2.664-0.325-4.213c-0.108-0.392-0.287-0.89-0.536-1.495c-0.498,0.41-0.903,0.7-1.215,0.869
			c-0.054,0.035-0.145,0.087-0.274,0.153c-0.129,0.067-0.245,0.126-0.347,0.175c-0.103,0.05-0.203,0.086-0.3,0.113
			c-0.205,0.099-0.529,0.22-0.976,0.361c-0.542,0.17-1.169,0.242-1.882,0.216c-0.231,0.001-0.392-0.008-0.481-0.026
			c0.036,0.17,0.125,0.592,0.269,1.269c0.455,1.549,1.122,2.792,2,3.73S73.212,69.238,73.996,69.024z M70.752,57.754
			c-0.613,0.18-1.081,0.723-1.4,1.631c0.125,0.071,0.32,0.133,0.587,0.187c0.357,0.071,0.691,0.08,1.002,0.026
			c0.205,0.018,0.396-0.014,0.574-0.095c0.373-0.134,0.574-0.21,0.602-0.228c0.373-0.134,0.72-0.308,1.04-0.521
			C72.293,57.866,71.491,57.532,70.752,57.754z"/>
		<path fill="#704F50" d="M98.122,41.624l0.976,0.635c-0.084,0.188-0.211,0.433-0.379,0.737c-0.014,0.043-0.053,0.108-0.116,0.195
			c-0.064,0.086-0.103,0.152-0.117,0.194l-0.253,0.456c-0.015,0.043-0.056,0.12-0.127,0.228c-0.07,0.109-0.127,0.191-0.169,0.249
			c-0.043,0.058-0.099,0.159-0.169,0.303c-0.07,0.145-0.127,0.246-0.168,0.303c-0.241,0.306-0.375,0.5-0.404,0.586
			c-0.027,0.087-0.095,0.202-0.2,0.347c-0.106,0.146-0.18,0.247-0.224,0.304c-0.014,0.044-0.045,0.105-0.094,0.186
			c-0.049,0.078-0.088,0.126-0.118,0.141l-0.126,0.174c-0.028,0.014-0.05,0.044-0.064,0.086c-0.014,0.044-0.036,0.072-0.063,0.088
			c-0.101,0.087-0.186,0.202-0.255,0.347c-0.1,0.088-0.185,0.203-0.254,0.348c-0.241,0.306-0.629,0.775-1.169,1.413
			c-0.34,0.391-0.773,0.849-1.299,1.371c-0.071,0.072-0.174,0.17-0.309,0.294c-0.135,0.123-0.231,0.2-0.287,0.229
			c0.178,0.558,0.313,1.138,0.406,1.739c0.431,2.594,0.094,4.924-1.009,6.989c-1.105,2.064-2.667,3.273-4.687,3.627
			c-2.021,0.353-3.891-0.266-5.609-1.855c-1.718-1.588-2.8-3.694-3.247-6.316c-0.431-2.594-0.094-4.923,1.011-6.988
			c1.104-2.065,2.666-3.274,4.686-3.627c1.362-0.229,2.703,0.029,4.025,0.773c1.322,0.748,2.421,1.833,3.298,3.258l0.129-0.065
			c0.641-0.509,1.075-0.858,1.301-1.048c0.214-0.146,0.619-0.517,1.215-1.112c0.143-0.145,0.234-0.246,0.277-0.305
			c0.142-0.145,0.241-0.231,0.299-0.261l0.127-0.174c0.027-0.016,0.054-0.036,0.075-0.066c0.02-0.028,0.045-0.05,0.074-0.065
			c0.013-0.042,0.049-0.097,0.106-0.162c0.056-0.065,0.099-0.105,0.128-0.12l0.51-0.587c0.142-0.145,0.29-0.312,0.446-0.5
			c0.17-0.231,0.304-0.391,0.404-0.478c0.169-0.231,0.29-0.384,0.361-0.456c0.013-0.042,0.058-0.112,0.137-0.207
			c0.078-0.093,0.124-0.162,0.138-0.206l0.32-0.327L98.122,41.624z M89.728,59.633c0.831-0.137,1.438-0.818,1.819-2.044
			c0.381-1.224,0.434-2.632,0.158-4.223c-0.062-0.401-0.183-0.916-0.362-1.546c-0.542,0.352-0.978,0.592-1.306,0.725
			c-0.058,0.029-0.153,0.07-0.289,0.122c-0.136,0.052-0.257,0.097-0.365,0.134c-0.107,0.037-0.21,0.063-0.311,0.078
			c-0.215,0.074-0.552,0.157-1.01,0.248c-0.559,0.107-1.189,0.107-1.895,0c-0.23-0.026-0.388-0.053-0.475-0.082
			c0.017,0.174,0.057,0.603,0.122,1.291c0.276,1.591,0.797,2.902,1.563,3.935C88.143,59.304,88.926,59.758,89.728,59.633z
			 M87.791,48.07c-0.631,0.107-1.156,0.595-1.577,1.46c0.116,0.086,0.303,0.17,0.562,0.252c0.347,0.112,0.677,0.158,0.993,0.141
			c0.201,0.041,0.395,0.031,0.581-0.028c0.386-0.091,0.593-0.144,0.622-0.157c0.388-0.091,0.752-0.225,1.095-0.4
			C89.308,48.354,88.549,47.932,87.791,48.07z"/>
		<path fill="#704F50" d="M114.523,39.412l0.594,1.011c-0.215-0.021-0.52-0.051-0.911-0.09c-0.394-0.038-1.11-0.048-2.151-0.028
			c-1.04,0.02-1.991,0.117-2.853,0.292c-0.86,0.175-1.74,0.503-2.639,0.983c-0.898,0.481-1.544,1.106-1.938,1.875
			c0.524,0.384,1.263,0.9,2.217,1.55c0.951,0.649,1.722,1.181,2.31,1.592c0.586,0.412,1.299,0.929,2.139,1.553
			s1.501,1.162,1.983,1.613c0.482,0.452,1,0.976,1.555,1.57c0.554,0.596,0.938,1.154,1.155,1.673
			c0.215,0.518,0.374,1.067,0.475,1.647c0.101,0.58,0.05,1.166-0.152,1.76s-0.535,1.184-0.998,1.772
			c-1.738,1.834-3.406,2.866-5,3.099l-0.045,0.017c-0.09,0.034-0.156,0.042-0.196,0.024c-0.413,0.088-0.828,0.127-1.245,0.115
			c-0.467,0.04-1.089-0.015-1.866-0.163c-0.863-0.187-1.627-0.479-2.295-0.876c-0.845-0.502-1.574-1.151-2.187-1.947
			c-0.023-0.061-0.057-0.125-0.1-0.193c-0.044-0.069-0.072-0.119-0.083-0.149l-0.079-0.073l-0.035-0.09l-0.113-0.162l-0.097-0.118
			l-0.069-0.18c-0.065-0.079-0.125-0.192-0.183-0.343c-0.261-0.415-0.49-0.877-0.685-1.387c-0.413-1.08-0.677-2.13-0.792-3.151
			c-0.085-1.032-0.058-2.126,0.085-3.281c-0.012-0.029-0.002-0.05,0.027-0.062l0.011-0.107c-0.731-0.476-1.501-1.006-2.309-1.592
			c-1.344-0.998-2.388-1.999-3.133-3.003c-0.745-1.005-1.178-1.913-1.3-2.726c-0.122-0.812-0.095-1.596,0.081-2.35
			c0.175-0.754,0.482-1.413,0.919-1.976c0.438-0.562,0.859-1.058,1.262-1.487c0.402-0.429,0.772-0.742,1.109-0.94l0.489-0.341
			c-0.059,2.187,1.826,4.732,5.65,7.634c0.733-0.865,1.629-1.558,2.683-2.083c1.054-0.522,2.064-0.849,3.028-0.977
			c0.964-0.128,1.887-0.189,2.767-0.181c0.879,0.008,1.58,0.066,2.103,0.175L114.523,39.412z M105.864,58.292
			c0.383,0.195,0.915,0.371,1.592,0.524l0.321,0.032c1.157-0.029,1.706-0.48,1.648-1.352c-0.071-0.902-0.443-1.765-1.12-2.588
			c-0.675-0.825-1.391-1.504-2.146-2.041c-0.755-0.537-1.879-1.275-3.372-2.216c-0.22-0.122-0.375-0.218-0.47-0.284
			c-0.045,0.602-0.017,1.261,0.085,1.977c0.153,0.939,0.393,1.793,0.721,2.56c0.122,0.229,0.315,0.602,0.583,1.118
			c0.063,0.079,0.14,0.188,0.228,0.326c0.086,0.139,0.168,0.262,0.244,0.369c0.076,0.109,0.146,0.203,0.21,0.281
			C104.758,57.51,105.248,57.942,105.864,58.292z"/>
		<path fill="#704F50" d="M132.282,33.589l1.126,0.5c-1.316,5.49-3.596,10.02-6.841,13.59c-2.753,3.046-5.372,4.512-7.856,4.4
			c-2.594-0.148-4.24-2.124-4.938-5.924c-0.1-0.504-0.172-1.032-0.217-1.585c-0.136-1.657,0.011-3.155,0.439-4.496
			c0.428-1.34,1.009-2.413,1.744-3.22c0.734-0.806,1.571-1.474,2.511-2.002c0.94-0.527,1.8-0.886,2.58-1.074
			c0.781-0.188,1.455-0.273,2.024-0.257c0.74,0.039,1.398,0.272,1.977,0.702c0.577,0.43,1.009,1.07,1.301,1.923
			c0.29,0.854,0.234,1.913-0.163,3.179c-0.624,2.055-2.421,3.422-5.396,4.103c0.463,3.164,1.502,4.402,3.114,3.712
			c1.758-0.76,3.815-3.356,6.171-7.79C131.208,36.775,132.016,34.854,132.282,33.589z M122.688,36.303
			c-0.186,0.049-0.356,0.094-0.512,0.134c-0.155,0.041-0.373,0.189-0.654,0.446c-0.281,0.256-0.506,0.572-0.673,0.947
			c-0.167,0.376-0.298,0.95-0.395,1.722c-0.096,0.772-0.095,1.66,0.002,2.662c2.338-0.446,3.695-1.598,4.072-3.457
			c0.05-0.312,0.057-0.669,0.016-1.075c-0.039-0.404-0.218-0.771-0.537-1.103C123.687,36.249,123.248,36.157,122.688,36.303z"/>
		<path fill="#704F50" d="M174.209,29.729l0.983,0.541l-7.875,10.806c0.967,3.465,1.602,6.588,1.9,9.372s0.342,4.942,0.127,6.477
			c-0.215,1.533-0.59,2.849-1.126,3.946c-0.537,1.096-1.008,1.828-1.41,2.197c-0.403,0.369-0.779,0.624-1.128,0.766
			c-0.472,0.243-1.044,0.409-1.715,0.5c-1.247,0.145-2.282-0.668-3.104-2.436s-1.383-4.027-1.681-6.778
			c-0.298-2.752-0.549-5.745-0.752-8.981c-0.205-3.236-0.296-6.253-0.274-9.049c-1.545,4.974-4.1,7.465-7.664,7.473
			c-1.447-0.009-2.552-0.562-3.317-1.657c-0.765-1.095-1.203-2.467-1.313-4.118c-0.112-1.65-0.12-3.296-0.021-4.938
			c0.098-1.642,0.225-3.172,0.378-4.592c0.155-1.42,0.178-2.288,0.069-2.605c0.095-0.035,0.23-0.064,0.406-0.088
			c0.175-0.022,0.513-0.051,1.009-0.087c0.496-0.035,0.963-0.036,1.397-0.005c0.435,0.032,0.912,0.127,1.433,0.283
			c0.52,0.157,0.961,0.381,1.326,0.672c0.364,0.292,0.646,0.715,0.844,1.269c0.197,0.555,0.263,1.218,0.196,1.992
			c-0.61,5.902-0.534,9.144,0.228,9.724c0.462,0.336,1.186-0.045,2.172-1.143c1.728-1.897,2.509-4.994,2.344-9.293l-0.17-1.92
			c0.127-0.037,0.286-0.084,0.478-0.139c0.19-0.056,0.557-0.118,1.101-0.187c0.543-0.069,1.072-0.097,1.587-0.085
			c0.514,0.013,1.081,0.127,1.699,0.345c0.619,0.217,1.153,0.542,1.604,0.974c0.45,0.433,0.844,1.068,1.181,1.906
			c0.338,0.839,0.512,1.853,0.526,3.04c0.022,0.578,0.054,1.605,0.094,3.081c0.04,1.476,0.076,2.631,0.108,3.465
			c1.537-1.793,3.002-3.584,4.396-5.372c1.394-1.788,2.411-3.128,3.052-4.02L174.209,29.729z M166.922,55.931
			c0.565-2.014,0.796-4.143,0.695-6.387c-0.103-2.245-0.32-3.956-0.654-5.131c-0.333-1.175-0.695-2.254-1.087-3.235
			C166.06,47.692,166.408,52.61,166.922,55.931z"/>
		<path fill="#704F50" d="M195.437,31.258l0.48,1.061c-0.172,0.113-0.41,0.251-0.715,0.417c-0.035,0.029-0.104,0.063-0.203,0.102
			s-0.17,0.073-0.204,0.102l-0.458,0.247c-0.035,0.03-0.111,0.07-0.229,0.124c-0.118,0.054-0.21,0.094-0.276,0.119
			c-0.068,0.026-0.17,0.081-0.307,0.165c-0.137,0.083-0.238,0.139-0.307,0.164c-0.366,0.127-0.584,0.219-0.653,0.277
			c-0.07,0.058-0.189,0.119-0.355,0.184c-0.168,0.065-0.285,0.11-0.352,0.137c-0.036,0.028-0.096,0.063-0.179,0.104
			c-0.086,0.041-0.144,0.06-0.176,0.056l-0.2,0.078c-0.032-0.003-0.066,0.011-0.101,0.039c-0.036,0.029-0.068,0.042-0.101,0.039
			c-0.131,0.021-0.265,0.072-0.401,0.156c-0.131,0.02-0.266,0.071-0.402,0.155c-0.366,0.127-0.948,0.314-1.745,0.561
			c-0.497,0.146-1.109,0.299-1.832,0.456c-0.099,0.023-0.239,0.05-0.419,0.082c-0.181,0.031-0.303,0.044-0.367,0.038
			c-0.149,0.566-0.348,1.127-0.593,1.685c-1.034,2.417-2.572,4.199-4.616,5.344c-2.041,1.146-4.01,1.324-5.9,0.533
			c-1.894-0.791-3.136-2.318-3.729-4.584c-0.592-2.264-0.369-4.621,0.667-7.07c1.032-2.418,2.571-4.199,4.614-5.345
			c2.043-1.145,4.01-1.322,5.902-0.532c1.271,0.539,2.263,1.479,2.975,2.819c0.711,1.342,1.054,2.849,1.025,4.522l0.144,0.014
			c0.813-0.084,1.367-0.145,1.661-0.182c0.259-0.007,0.799-0.102,1.623-0.282c0.197-0.045,0.329-0.082,0.396-0.107
			c0.197-0.046,0.328-0.065,0.393-0.06l0.201-0.078c0.031,0.003,0.064-0.001,0.098-0.015c0.033-0.012,0.066-0.018,0.099-0.015
			c0.033-0.029,0.093-0.056,0.177-0.08c0.082-0.025,0.14-0.036,0.172-0.033l0.746-0.22c0.198-0.045,0.413-0.105,0.646-0.181
			c0.269-0.103,0.468-0.165,0.599-0.186c0.267-0.104,0.451-0.167,0.55-0.19c0.034-0.028,0.109-0.062,0.227-0.1
			c0.117-0.037,0.191-0.07,0.228-0.099l0.445-0.104L195.437,31.258z M178.667,41.914c0.773,0.331,1.651,0.083,2.633-0.744
			c0.98-0.827,1.783-1.984,2.407-3.473c0.163-0.372,0.339-0.87,0.528-1.498c-0.646,0.005-1.143-0.026-1.491-0.092
			c-0.064-0.005-0.167-0.022-0.309-0.053c-0.144-0.029-0.27-0.057-0.379-0.084c-0.112-0.027-0.213-0.061-0.306-0.101
			c-0.221-0.053-0.549-0.165-0.983-0.335c-0.529-0.21-1.061-0.551-1.597-1.021c-0.18-0.146-0.3-0.253-0.357-0.324
			c-0.079,0.154-0.276,0.539-0.592,1.153c-0.624,1.489-0.892,2.875-0.803,4.156C177.507,40.781,177.923,41.586,178.667,41.914z
			 M183.262,31.126c-0.589-0.249-1.294-0.122-2.115,0.381c0.052,0.134,0.165,0.306,0.338,0.515c0.231,0.281,0.486,0.499,0.761,0.653
			c0.147,0.143,0.316,0.24,0.504,0.289c0.376,0.132,0.578,0.2,0.61,0.203c0.375,0.132,0.753,0.216,1.138,0.252
			C184.387,32.183,183.976,31.419,183.262,31.126z"/>
		<path fill="#704F50" d="M216.387,37.211l1.055,0.141c0.461,0.137,0.579,0.411,0.356,0.821c-0.007,0.031-0.166,0.366-0.475,1.003
			c-0.31,0.638-0.63,1.289-0.96,1.955c-0.333,0.665-0.808,1.488-1.424,2.466c-0.616,0.98-1.234,1.894-1.854,2.74
			c-0.622,0.847-1.366,1.698-2.233,2.555c-0.87,0.857-1.743,1.556-2.623,2.097c-0.88,0.542-1.863,0.928-2.952,1.158
			c-1.09,0.23-2.182,0.223-3.277-0.026c-3.005-0.68-3.882-3.644-2.628-8.889c-2.156,2.112-4.457,2.825-6.902,2.139
			c-1.396-0.381-2.322-1.192-2.781-2.432c-0.46-1.239-0.532-2.67-0.214-4.294c0.319-1.623,0.736-3.215,1.256-4.776
			c0.518-1.562,1.034-3.007,1.551-4.339c0.515-1.331,0.761-2.164,0.738-2.499c0.194,0.011,0.453,0.029,0.776,0.052
			c0.324,0.024,0.881,0.15,1.668,0.378c0.788,0.228,1.438,0.523,1.947,0.885c0.511,0.363,0.895,0.918,1.153,1.668
			c0.257,0.75,0.191,1.624-0.199,2.621c-2.112,5.544-2.876,8.697-2.289,9.455c0.36,0.444,1.157,0.262,2.394-0.544
			c1.197-0.782,2.214-2.033,3.047-3.753c0.835-1.719,1.368-3.245,1.604-4.574l0.353-1.994c0.132-0.002,0.295,0.001,0.491,0.013
			c0.195,0.011,0.567,0.071,1.119,0.179c0.551,0.109,1.063,0.249,1.534,0.421c0.471,0.173,0.976,0.452,1.514,0.836
			c0.537,0.386,0.954,0.833,1.251,1.345c0.296,0.511,0.479,1.187,0.553,2.026c0.072,0.84-0.058,1.781-0.393,2.824
			c-0.255,0.83-0.63,1.98-1.126,3.447c-1.189,3.647-1.698,5.755-1.53,6.318c0.224,0.61,1.066,0.374,2.531-0.71
			c1.309-0.988,2.545-2.378,3.709-4.171c1.162-1.793,1.991-3.342,2.483-4.646L216.387,37.211z"/>
		<path fill="#704F50" d="M232.745,45.279l1.018,0.299c0.395,0.237,0.461,0.532,0.205,0.885c-0.01,0.031-0.248,0.374-0.71,1.029
			c-0.464,0.655-0.963,1.366-1.497,2.133c-0.537,0.767-1.243,1.686-2.121,2.759c-0.878,1.072-1.762,2.084-2.648,3.034
			c-0.888,0.951-1.895,1.878-3.02,2.78c-1.125,0.903-2.217,1.631-3.271,2.185c-1.057,0.553-2.172,0.907-3.346,1.063
			s-2.282,0.021-3.322-0.404c-0.81-0.313-1.401-0.813-1.775-1.502c-0.374-0.689-0.516-1.511-0.426-2.464
			c0.091-0.954,0.278-1.94,0.563-2.964c0.283-1.021,0.723-2.178,1.319-3.467c0.596-1.288,1.155-2.445,1.679-3.471
			c0.521-1.024,1.111-2.171,1.769-3.439c0.656-1.268,1.155-2.25,1.497-2.947c-1.9-0.688-3.352-1.382-4.349-2.082
			c-1-0.701-1.567-1.345-1.702-1.936c-0.138-0.589-0.139-1.201-0.006-1.834s0.381-1.252,0.741-1.859
			c0.362-0.605,0.529-1.269,0.507-1.989c0.214-0.029,0.479-0.039,0.8-0.03c0.319,0.008,0.871,0.079,1.657,0.214
			c0.785,0.135,1.438,0.359,1.958,0.674c0.52,0.314,0.886,0.831,1.097,1.549s0.083,1.606-0.384,2.668
			c-0.333,0.769,0.185,1.388,1.551,1.858c0.495,0.136,0.981,0.304,1.457,0.501c0.475,0.197,1.008,0.524,1.598,0.981
			c0.588,0.458,1.03,0.975,1.325,1.551c0.293,0.577,0.433,1.33,0.419,2.257c-0.015,0.929-0.29,1.929-0.828,3
			c-2.651,5.334-4.154,8.619-4.511,9.854c-0.733,2.328-0.06,2.934,2.021,1.816c1.45-0.758,3.072-2.193,4.869-4.308
			s3.232-4.039,4.305-5.775L232.745,45.279z"/>
		<path fill="#704F50" d="M258.753,55.346c1.372,1.082,1.374,2.58,0.008,4.492c-1.518,2.16-3.959,3.898-7.325,5.215
			c-3.428,1.354-6.615,1.711-9.561,1.072c-0.728-0.098-1.421-0.346-2.082-0.74c-0.899-0.5-1.3-1.439-1.202-2.822
			c0.097-1.381,0.588-2.986,1.475-4.813c0.886-1.826,1.975-3.82,3.268-5.984c1.294-2.162,2.694-4.288,4.206-6.377
			c1.509-2.09,2.932-4.109,4.267-6.061s2.47-3.601,3.407-4.947c0.936-1.348,1.494-2.36,1.675-3.038
			c0.126,0.039,0.281,0.093,0.463,0.164c0.182,0.072,0.518,0.245,1.009,0.52c0.49,0.274,0.933,0.566,1.326,0.877
			s0.78,0.729,1.159,1.253c0.377,0.525,0.635,1.08,0.77,1.667c0.137,0.586,0.102,1.286-0.104,2.098
			c-0.205,0.813-0.629,1.663-1.271,2.55c-5.482,7.793-9.493,13.847-12.035,18.162c1.197-1.004,2.349-1.85,3.452-2.537
			c1.103-0.688,2.333-1.166,3.692-1.438C256.709,54.385,257.843,54.616,258.753,55.346z M245.505,64.368
			c2.575-0.18,5.267-1.301,8.071-3.365c2.286-1.699,3.422-3.097,3.403-4.191c-0.008-0.304-0.125-0.543-0.356-0.719
			c-0.71-0.5-1.993-0.06-3.846,1.319c-1.853,1.38-3.533,2.891-5.038,4.534L245.505,64.368z"/>
		<path fill="#704F50" d="M279.594,75.561l0.869,0.609c0.297,0.351,0.267,0.652-0.089,0.904c-0.021,0.025-0.354,0.274-1.002,0.748
			c-0.648,0.473-1.351,0.986-2.101,1.541c-0.753,0.555-1.717,1.2-2.893,1.936c-1.175,0.736-2.335,1.412-3.479,2.029
			c-1.146,0.617-2.395,1.174-3.75,1.668c-1.354,0.496-2.621,0.837-3.799,1.023c-1.177,0.187-2.347,0.166-3.509-0.062
			c-1.163-0.228-2.169-0.71-3.02-1.446c-0.667-0.556-1.067-1.219-1.2-1.99c-0.135-0.773-0.007-1.597,0.384-2.471
			c0.39-0.875,0.884-1.75,1.479-2.629c0.597-0.877,1.383-1.831,2.359-2.861c0.977-1.031,1.876-1.948,2.7-2.752
			c0.822-0.805,1.747-1.703,2.776-2.693c1.027-0.991,1.814-1.763,2.361-2.314c-1.582-1.26-2.733-2.381-3.456-3.363
			c-0.722-0.982-1.053-1.775-0.993-2.378c0.058-0.603,0.253-1.183,0.582-1.74c0.328-0.558,0.76-1.065,1.296-1.523
			s0.907-1.034,1.116-1.724c0.212,0.041,0.467,0.117,0.768,0.227c0.301,0.11,0.801,0.354,1.502,0.732
			c0.7,0.379,1.247,0.801,1.64,1.266c0.392,0.464,0.573,1.07,0.545,1.817c-0.03,0.748-0.436,1.55-1.218,2.405
			c-0.562,0.622-0.269,1.375,0.876,2.256c0.425,0.289,0.832,0.603,1.22,0.941c0.386,0.338,0.786,0.82,1.199,1.441
			c0.411,0.621,0.665,1.253,0.759,1.893c0.095,0.641-0.013,1.398-0.324,2.273c-0.31,0.877-0.892,1.735-1.744,2.578
			c-4.218,4.206-6.692,6.838-7.426,7.894c-1.438,1.971-0.993,2.76,1.337,2.368c1.615-0.256,3.611-1.097,5.99-2.525
			c2.378-1.428,4.353-2.794,5.926-4.096L279.594,75.561z"/>
		<path fill="#704F50" d="M293.088,88.42l0.147,1.224c-5.389,1.685-10.446,2.05-15.177,1.095c-4.025-0.801-6.626-2.298-7.805-4.488
			c-1.203-2.305-0.352-4.73,2.553-7.277c0.383-0.344,0.8-0.676,1.251-0.998c1.354-0.967,2.715-1.609,4.085-1.929
			c1.369-0.319,2.59-0.37,3.659-0.153c1.068,0.217,2.07,0.594,3.007,1.129c0.935,0.537,1.685,1.092,2.246,1.665
			c0.561,0.574,0.979,1.108,1.257,1.605c0.347,0.655,0.483,1.341,0.411,2.056c-0.073,0.717-0.401,1.418-0.983,2.104
			c-0.585,0.687-1.522,1.184-2.813,1.49c-2.084,0.52-4.18-0.323-6.288-2.528c-2.479,2.021-3.01,3.547-1.592,4.577
			c1.554,1.121,4.838,1.556,9.852,1.305C289.802,89.131,291.864,88.84,293.088,88.42z M285.839,81.576
			c-0.138-0.136-0.264-0.259-0.379-0.371c-0.114-0.113-0.354-0.224-0.718-0.333c-0.364-0.11-0.751-0.141-1.158-0.092
			c-0.409,0.049-0.968,0.23-1.681,0.543c-0.712,0.313-1.475,0.769-2.285,1.367c1.582,1.778,3.267,2.352,5.055,1.723
			c0.294-0.117,0.604-0.295,0.932-0.536c0.326-0.241,0.55-0.585,0.672-1.028C286.396,82.405,286.251,81.98,285.839,81.576z"/>
		<path fill="#704F50" d="M314.827,115.135l0.343,0.945c-0.098,0.031-0.207,0.073-0.329,0.123c-0.122,0.051-0.399,0.137-0.829,0.256
			c-0.432,0.12-0.837,0.18-1.216,0.182c-0.378,0.002-0.86-0.03-1.447-0.094c-0.588-0.064-1.105-0.25-1.553-0.558
			c-0.448-0.308-0.944-0.708-1.491-1.202c-0.546-0.494-0.985-1.179-1.313-2.053c-1.294,0.68-2.424,1.177-3.388,1.493
			c-1.28,0.43-2.409,0.687-3.385,0.772c-1.027,0.123-2.037,0.11-3.023-0.036c-0.636-0.048-1.28-0.189-1.934-0.424
			c-1.051-0.34-2.091-0.907-3.121-1.702c-0.734-0.614-1.154-1.342-1.259-2.184c-0.105-0.842,0.077-1.727,0.548-2.654
			c0.47-0.929,1.039-1.819,1.704-2.674c0.667-0.853,1.496-1.768,2.49-2.745c-4.559,1.183-8.217,0.319-10.975-2.591
			c-0.996-1.021-1.314-2.162-0.954-3.429c0.358-1.267,1.196-2.508,2.514-3.724c1.316-1.215,2.717-2.385,4.202-3.506
			c1.485-1.123,2.937-2.238,4.353-3.348c1.414-1.11,2.319-1.992,2.715-2.645c0.082,0.059,0.207,0.146,0.374,0.262
			c0.166,0.117,0.449,0.377,0.848,0.78c0.399,0.403,0.752,0.811,1.058,1.224c0.306,0.412,0.575,0.924,0.806,1.53
			c0.231,0.608,0.33,1.214,0.298,1.817c-0.03,0.603-0.256,1.27-0.674,2c-0.418,0.729-1.048,1.444-1.885,2.146
			c-0.729,0.58-1.745,1.394-3.046,2.439c-2.935,2.297-4.477,3.719-4.626,4.271c-0.157,0.596,0.688,0.847,2.538,0.754
			c2.106-0.123,4.066-0.498,5.881-1.124c1.561-1.397,2.477-2.237,2.748-2.518c0.193,0.097,0.424,0.234,0.696,0.412
			c0.271,0.179,0.698,0.552,1.28,1.119c0.579,0.567,1.009,1.159,1.285,1.774c0.275,0.613,0.314,1.395,0.117,2.34
			c-0.197,0.947-0.767,1.89-1.709,2.828c-2.861,2.88-4.686,4.973-5.475,6.278c0.531,0.124,1.202,0.167,2.012,0.126
			c0.828-0.014,1.744-0.154,2.746-0.419c1.15-0.334,2.147-0.714,2.992-1.14c0.025-0.019,0.081-0.051,0.169-0.096
			c0.088-0.044,0.152-0.063,0.198-0.057c-0.169-0.873-0.275-1.474-0.318-1.802c-0.106-0.682-0.128-1.304-0.067-1.868
			c0.068-0.771,0.271-1.441,0.608-2.01c0.188-0.34,0.442-0.67,0.766-0.988c0.265-0.236,0.618-0.459,1.063-0.668
			c0.85-0.311,1.688-0.313,2.515-0.006c0.902,0.248,1.584,0.762,2.042,1.541c0.287,0.387,0.451,0.824,0.494,1.313
			c0.1,0.405,0.088,0.874-0.037,1.406c-0.124,0.371-0.286,0.772-0.487,1.201c-0.149,0.23-0.392,0.55-0.727,0.959
			c-0.253,0.307-0.521,0.565-0.804,0.776c-0.084,0.102-0.229,0.229-0.436,0.382l-0.388,0.287c-0.722,0.536-1.458,1.023-2.212,1.462
			c0.051,0.122,0.134,0.29,0.252,0.502c0.118,0.213,0.378,0.578,0.784,1.097c0.404,0.52,0.843,0.935,1.313,1.245
			s1.101,0.513,1.89,0.607C313.149,115.621,313.971,115.491,314.827,115.135z M309.27,108.288l0.309-0.229
			c0.283-0.21,0.493-0.386,0.629-0.526c0.387-0.447,0.635-0.813,0.747-1.094c0.13-0.417,0.112-0.764-0.052-1.041
			c-0.179-0.348-0.485-0.6-0.921-0.756c-0.365-0.169-0.765-0.193-1.193-0.073c-0.368,0.151-0.667,0.395-0.9,0.727
			c-0.208,0.313-0.377,0.759-0.508,1.336c-0.055,0.681-0.074,1.194-0.057,1.54l0.13,1.225c0.025-0.019,0.226-0.139,0.603-0.357
			c0.377-0.22,0.655-0.396,0.836-0.531C308.962,108.495,309.088,108.421,309.27,108.288z"/>
	</g>
</g>
<g id="cup-beverage">
	<path opacity="0.5" fill="#231F20" d="M40.645,215.034c0-65.379,53-118.377,118.376-118.377c65.379,0,118.38,52.998,118.38,118.377
		c0,65.38-53.001,118.381-118.38,118.381C93.644,333.415,40.645,280.414,40.645,215.034z"/>
	
		<image overflow="visible" width="756" height="620" xlink:href="cup1.png"  transform="matrix(0.3392 0.1925 -0.1925 0.3392 118.3701 45.2832)">
	</image>
</g>
</svg>
