<?xml version="1.0" encoding="utf-8"?>
<!-- Generator: Adobe Illustrator 16.0.0, SVG Export Plug-In . SVG Version: 6.00 Build 0)  -->
<!DOCTYPE svg PUBLIC "-//W3C//DTD SVG 1.1//EN" "http://www.w3.org/Graphics/SVG/1.1/DTD/svg11.dtd">
<svg version="1.1" id="Layer_1" xmlns="http://www.w3.org/2000/svg" xmlns:xlink="http://www.w3.org/1999/xlink" x="0px" y="0px"
	 width="1349px" height="100.932px" viewBox="0 0 1349 100.932" enable-background="new 0 0 1349 100.932" xml:space="preserve">
<g opacity="0.25">
	<g>
		<g>
			<path fill="#F9F0AF" d="M1310.648,8.534c3.975,0,8.138,1.027,13.087,3.229c0.226,0.127,0.479,0.268,0.757,0.422
				c0.887,0.487,1.986,1.099,2.973,1.76c5.442,3.666,9.928,8.57,13.322,14.574c2.888,5.108,3.801,9.633,2.866,14.218
				c-1.196-2.604-2.826-5.05-4.876-7.318c-4.779-5.288-10.722-8.798-15.361-11.263c-2.168-1.152-4.37-2.288-6.504-3.385
				c-2.83-1.457-5.756-2.964-8.567-4.5c-2.745-1.497-4.599-3.041-5.831-4.862c-0.23-0.34-0.335-0.593-0.377-0.732
				c0.089-0.087,0.256-0.22,0.526-0.369c1.124-0.622,2.313-1.073,3.421-1.305C1307.613,8.687,1309.105,8.534,1310.648,8.534
				 M1310.648,3.534c-1.844,0-3.693,0.186-5.57,0.569c-1.671,0.347-3.338,0.998-4.834,1.826c-3.399,1.877-4.045,5.083-1.866,8.288
				c1.93,2.849,4.628,4.837,7.571,6.441c4.988,2.726,10.099,5.24,15.118,7.911c5.146,2.734,10.048,5.828,14.001,10.201
				c3.072,3.398,5.095,7.33,5.788,11.896c0.188,1.233,0.761,1.895,1.564,1.895c0.438,0,0.948-0.197,1.5-0.605
				c2.687-1.994,3.917-4.864,4.586-8c1.371-6.42-0.234-12.349-3.367-17.895c-3.7-6.542-8.621-12.045-14.885-16.264
				c-1.601-1.074-3.33-1.962-4.249-2.495C1320.703,4.915,1315.705,3.534,1310.648,3.534L1310.648,3.534z"/>
		</g>
		<g>
			<path fill="#F9F0AF" d="M1298.781,27.855c0.598,0.583,1.222,1.159,1.873,1.728c4.306,3.747,9.097,6.404,13.729,8.975
				c0.62,0.345,1.241,0.688,1.86,1.033c0.717,0.401,1.437,0.801,2.153,1.196c4.146,2.289,8.063,4.451,11.373,7.33
				c1.451,1.26,2.574,2.469,3.422,3.693c-0.549,0.037-1.105,0.056-1.663,0.056c-4.245,0-8.699-1.035-14.011-3.259
				c-4.94-2.34-8.629-5.146-11.942-9.08C1302.43,35.792,1300.182,31.937,1298.781,27.855 M1294.289,13.575
				c-0.411,0-0.787,0.336-1.074,1.005c-1.132,2.644-1.185,5.417-0.78,8.188c1.104,7.584,4.387,14.125,9.318,19.979
				c3.63,4.313,7.883,7.674,13.73,10.43c4.724,1.984,10.179,3.688,16.046,3.688c0.786,0,1.579-0.03,2.379-0.095
				c1.33-0.109,2.686-0.553,3.91-1.102c1.452-0.648,1.883-1.967,1.271-3.443c-1.303-3.16-3.489-5.67-6.04-7.886
				c-4.329-3.763-9.407-6.339-14.363-9.112c-5.098-2.854-10.297-5.541-14.749-9.417c-3.291-2.866-6.017-6.148-7.791-10.171
				c-0.209-0.479-0.466-0.944-0.783-1.356C1295.001,13.811,1294.632,13.575,1294.289,13.575L1294.289,13.575z"/>
		</g>
	</g>
	<g>
		<g>
			<path fill="#F9F0AF" d="M902.654,66.176c0.267,0.021,0.567,0.043,0.898,0.065c1.001,0.067,2.247,0.153,3.405,0.336
				c6.486,1.02,12.622,3.566,18.235,7.574c4.772,3.406,7.514,7.118,8.607,11.672c-2.188-1.854-4.697-3.385-7.515-4.569
				c-6.569-2.772-13.438-3.44-18.683-3.714c-2.449-0.128-4.927-0.227-7.319-0.318c-3.183-0.124-6.472-0.253-9.673-0.455
				c-3.124-0.196-5.454-0.813-7.342-1.94c-0.354-0.21-0.556-0.396-0.651-0.507c0.044-0.113,0.139-0.307,0.321-0.557
				c0.758-1.04,1.642-1.951,2.549-2.627C889.923,67.843,895.224,66.31,902.654,66.176 M902.828,61.173
				c-7.934,0.109-14.563,1.672-20.318,5.949c-1.365,1.019-2.602,2.313-3.605,3.694c-2.289,3.143-1.518,6.317,1.811,8.303
				c2.953,1.768,6.239,2.427,9.588,2.638c5.676,0.358,11.365,0.479,17.046,0.776c5.817,0.303,11.567,1.033,17,3.325
				c4.226,1.78,7.716,4.488,10.275,8.333c0.521,0.783,1.104,1.18,1.672,1.18c0.597,0,1.175-0.437,1.649-1.312
				c1.594-2.938,1.492-6.063,0.772-9.187c-1.474-6.399-5.434-11.093-10.618-14.792c-6.114-4.366-12.9-7.272-20.361-8.445
				C905.83,61.34,903.888,61.271,902.828,61.173L902.828,61.173z"/>
		</g>
		<g>
			<path fill="#F9F0AF" d="M886.848,91.308c0.786,0.277,1.598,0.535,2.431,0.775c5.489,1.577,10.964,1.959,16.257,2.328
				c0.701,0.049,1.4,0.098,2.1,0.147c0.82,0.063,1.644,0.117,2.462,0.173c4.726,0.322,9.188,0.627,13.403,1.834
				c1.848,0.529,3.377,1.15,4.664,1.902c-4.128,2.277-9.085,3.463-15.561,3.725c-5.469-0.03-9.994-1.015-14.666-3.182
				C893.508,96.958,889.841,94.414,886.848,91.308 M877.115,80.19c-0.613,0-0.956,0.501-0.928,1.442
				c0.094,2.871,1.221,5.407,2.758,7.751c4.203,6.405,9.943,10.944,16.889,14.165c5.113,2.372,10.39,3.622,16.855,3.646
				c5.806-0.225,12.313-1.174,18.219-4.53c1.158-0.66,2.195-1.638,3.074-2.65c1.045-1.202,0.878-2.577-0.303-3.659
				c-2.519-2.313-5.56-3.662-8.809-4.592c-5.514-1.579-11.206-1.767-16.87-2.187c-5.824-0.432-11.673-0.667-17.346-2.299
				c-4.193-1.207-8.054-3.028-11.359-5.925c-0.392-0.342-0.823-0.657-1.283-0.896C877.673,80.277,877.37,80.19,877.115,80.19
				L877.115,80.19z"/>
		</g>
	</g>
	<g>
		<g>
			<path fill="#F9F0AF" d="M779.738,64.868c0.267,0.021,0.568,0.043,0.9,0.063c1,0.069,2.246,0.154,3.405,0.336
				c6.487,1.021,12.622,3.568,18.234,7.576c4.773,3.407,7.515,7.119,8.607,11.67c-2.188-1.854-4.698-3.382-7.514-4.569
				c-6.568-2.771-13.437-3.438-18.683-3.713c-2.457-0.129-4.941-0.226-7.347-0.318c-3.174-0.124-6.457-0.252-9.646-0.454
				c-3.127-0.198-5.459-0.813-7.344-1.94c-0.354-0.211-0.556-0.396-0.65-0.506c0.044-0.115,0.139-0.308,0.323-0.56
				c0.756-1.039,1.639-1.948,2.548-2.626C767.01,66.534,772.311,65.001,779.738,64.868 M779.912,59.865
				c-7.934,0.106-14.563,1.672-20.316,5.947c-1.367,1.021-2.604,2.315-3.606,3.696c-2.289,3.142-1.518,6.318,1.81,8.302
				c2.952,1.768,6.242,2.425,9.588,2.639c5.676,0.356,11.367,0.479,17.049,0.775c5.815,0.302,11.568,1.034,17,3.326
				c4.225,1.781,7.713,4.488,10.273,8.332c0.521,0.784,1.104,1.179,1.672,1.179c0.598,0,1.175-0.435,1.648-1.308
				c1.594-2.942,1.494-6.065,0.773-9.188c-1.473-6.397-5.433-11.092-10.617-14.792c-6.115-4.365-12.901-7.271-20.361-8.443
				C782.914,60.031,780.972,59.963,779.912,59.865L779.912,59.865z"/>
		</g>
		<g>
			<path fill="#F9F0AF" d="M763.932,90.002c0.786,0.274,1.597,0.534,2.43,0.772c5.482,1.576,10.947,1.957,16.231,2.326
				c0.709,0.05,1.417,0.101,2.124,0.151c0.819,0.061,1.639,0.116,2.457,0.173c4.728,0.322,9.189,0.627,13.407,1.833
				c1.849,0.529,3.378,1.15,4.664,1.902c-4.125,2.275-9.082,3.463-15.558,3.725c-5.47-0.032-9.996-1.015-14.666-3.182
				C770.592,95.65,766.925,93.107,763.932,90.002 M754.2,78.884c-0.614,0-0.956,0.502-0.927,1.443
				c0.092,2.867,1.219,5.405,2.755,7.749c4.205,6.405,9.944,10.942,16.89,14.165c5.114,2.372,10.391,3.622,16.856,3.646
				c5.806-0.225,12.311-1.172,18.218-4.532c1.158-0.66,2.195-1.635,3.076-2.648c1.042-1.202,0.875-2.575-0.303-3.658
				c-2.521-2.313-5.562-3.663-8.811-4.593c-5.514-1.577-11.206-1.768-16.87-2.188c-5.824-0.431-11.673-0.666-17.346-2.297
				c-4.194-1.207-8.054-3.028-11.358-5.925c-0.392-0.343-0.822-0.657-1.283-0.897C754.757,78.971,754.455,78.884,754.2,78.884
				L754.2,78.884z"/>
		</g>
	</g>
	<g>
		<g>
			<path fill="#F9F0AF" d="M834.093,54.535c4.112,0,8.433,0.999,13.572,3.14c0.248,0.133,0.533,0.281,0.845,0.444
				c0.958,0.499,2.15,1.12,3.226,1.805c5.941,3.79,10.885,8.936,14.687,15.292c3.295,5.512,4.389,10.436,3.436,15.498
				c-0.053,0.271-0.105,0.538-0.164,0.793c-1.367-3.056-3.29-5.896-5.754-8.487c-5.204-5.479-11.595-9.045-16.575-11.536
				c-2.332-1.168-4.704-2.314-6.999-3.428c-3.063-1.48-6.228-3.016-9.274-4.584c-3.014-1.549-5.063-3.177-6.457-5.128
				c-0.431-0.602-0.516-0.99-0.521-1.034c0.002-0.003,0.133-0.264,0.755-0.628c1.203-0.705,2.485-1.229,3.704-1.513
				C830.408,54.743,832.216,54.535,834.093,54.535 M834.093,49.535c-2.208,0-4.417,0.245-6.653,0.763
				c-1.771,0.413-3.53,1.146-5.104,2.07c-3.574,2.091-4.174,5.521-1.771,8.883c2.133,2.984,5.062,5.034,8.239,6.668
				c5.392,2.771,10.899,5.321,16.32,8.035c5.557,2.776,10.859,5.947,15.188,10.508c3.365,3.543,5.62,7.677,6.481,12.523
				c0.228,1.29,0.84,1.979,1.677,1.979c0.479,0,1.028-0.224,1.621-0.688c2.813-2.191,4.05-5.284,4.68-8.645
				c1.295-6.88-0.572-13.155-4.059-18.983c-4.111-6.878-9.501-12.611-16.289-16.94c-1.731-1.105-3.603-2.003-4.595-2.549
				C844.372,50.863,839.236,49.535,834.093,49.535L834.093,49.535z"/>
		</g>
		<g>
			<path fill="#F9F0AF" d="M820.583,74.579c0.937,0.933,1.942,1.844,3.021,2.735c4.661,3.86,9.824,6.562,14.817,9.171
				c0.668,0.352,1.336,0.698,2.003,1.053c0.77,0.403,1.537,0.806,2.31,1.206c4.5,2.342,8.75,4.554,12.389,7.563
				c1.787,1.479,3.135,2.9,4.122,4.367c-0.08,0.013-0.153,0.021-0.22,0.029c-0.919,0.097-1.861,0.146-2.81,0.146
				c-4.382,0-8.984-0.998-14.476-3.14c-5.382-2.39-9.422-5.308-13.091-9.453C824.822,83.936,822.158,79.425,820.583,74.579
				 M816.206,60.677c-0.446,0-0.846,0.369-1.139,1.101c-1.137,2.847-1.118,5.806-0.617,8.747
				c1.375,8.055,5.045,14.938,10.455,21.049c3.979,4.5,8.604,7.973,14.911,10.756c4.864,1.904,10.444,3.521,16.396,3.521
				c1.102,0,2.21-0.056,3.332-0.174c1.414-0.149,2.845-0.659,4.138-1.275c1.529-0.729,1.953-2.144,1.267-3.7
				c-1.474-3.335-3.867-5.951-6.646-8.246c-4.713-3.897-10.189-6.512-15.547-9.336c-5.507-2.908-11.118-5.639-15.965-9.65
				c-3.584-2.97-6.572-6.396-8.569-10.635c-0.234-0.504-0.521-0.996-0.871-1.429C816.96,60.918,816.567,60.677,816.206,60.677
				L816.206,60.677z"/>
		</g>
	</g>
	<g>
		<g>
			<path fill="#F9F0AF" d="M982.571,60.625c3.432,0,6.436,0.772,9.177,2.37c-2.85,0.3-5.696,1.061-8.494,2.271
				c-6.543,2.832-11.771,7.332-15.596,10.936c-1.803,1.695-3.602,3.435-5.338,5.114c-2.273,2.198-4.624,4.474-6.967,6.632
				c-2.305,2.12-4.358,3.381-6.478,3.964c-0.365,0.101-0.614,0.122-0.758,0.122c-0.022,0-0.043,0-0.063-0.001
				c-0.053-0.111-0.126-0.313-0.181-0.614c-0.227-1.268-0.273-2.536-0.136-3.663c0.682-5.479,3.239-10.367,8.284-15.832
				c0.183-0.163,0.387-0.35,0.608-0.553c0.754-0.688,1.692-1.545,2.651-2.276c5.215-3.981,11.297-6.653,18.078-7.942
				C979.202,60.802,980.953,60.625,982.571,60.625 M982.571,55.625c-2.024,0-4.074,0.222-6.141,0.614
				c-7.383,1.401-14.175,4.297-20.178,8.88c-1.534,1.171-2.929,2.522-3.729,3.226c-5.403,5.807-8.858,11.678-9.744,18.793
				c-0.207,1.693-0.125,3.483,0.177,5.164c0.553,3.07,2.487,4.731,5.162,4.731c0.655,0,1.354-0.102,2.09-0.305
				c3.318-0.913,6.063-2.832,8.532-5.104c4.181-3.854,8.199-7.883,12.343-11.781c4.241-3.996,8.744-7.645,14.155-9.986
				c3.01-1.304,6.103-2.008,9.283-2.008c1.267,0,2.547,0.111,3.841,0.341c0.249,0.045,0.479,0.066,0.694,0.066
				c1.414,0,2.021-0.951,1.508-2.556c-1.026-3.188-3.354-5.272-6.105-6.91C990.681,56.539,986.681,55.625,982.571,55.625
				L982.571,55.625z"/>
		</g>
		<g>
			<path fill="#F9F0AF" d="M996.986,75.816c-1.204,4.556-3.773,8.956-8.063,13.817c-3.803,3.929-7.642,6.521-12.437,8.4
				c-4.574,1.793-8.904,2.673-13.231,2.688c0.744-0.377,1.49-0.784,2.239-1.221c4.926-2.872,8.979-6.557,12.896-10.117
				c0.526-0.479,1.055-0.958,1.584-1.437c0.604-0.546,1.203-1.094,1.806-1.642c3.504-3.199,6.813-6.221,10.61-8.438
				C994.05,76.901,995.555,76.227,996.986,75.816 M999.539,70.355c-0.087,0-0.175,0.003-0.266,0.011
				c-3.411,0.221-6.488,1.482-9.405,3.189c-4.952,2.894-9.021,6.875-13.239,10.682c-4.338,3.91-8.552,7.976-13.65,10.946
				c-3.771,2.198-7.755,3.727-12.135,4.115c-0.518,0.046-1.044,0.138-1.536,0.308c-1.239,0.42-1.4,1.241-0.409,2.135
				c2.14,1.919,4.752,2.854,7.507,3.363c2.269,0.418,4.511,0.619,6.729,0.619c5.157,0,10.197-1.082,15.18-3.034
				c5.248-2.057,9.801-5.006,14.285-9.663c3.852-4.351,7.662-9.708,9.315-16.298c0.325-1.294,0.338-2.717,0.213-4.057
				C1001.988,71.178,1000.992,70.355,999.539,70.355L999.539,70.355z"/>
		</g>
	</g>
	<g>
		<g>
			<path fill="#F9F0AF" d="M1039.542,59.104c6.255,0,12.554,1.215,18.722,3.612c6.619,2.574,11.109,6.299,13.729,11.388
				c0.399,0.776,0.723,1.504,0.97,2.194c-3.529-2.101-7.492-3.491-11.841-4.147c-2.289-0.347-4.695-0.521-7.152-0.521
				c-4.416,0-9.006,0.521-14.882,1.696c-2.828,0.563-5.68,1.172-8.438,1.76c-3.651,0.779-7.43,1.585-11.128,2.281
				c-1.813,0.341-3.403,0.506-4.867,0.506c-1.616,0-3.072-0.199-4.456-0.612c-0.985-0.293-1.393-0.675-1.471-0.836
				c-0.07-0.146-0.104-0.612,0.229-1.442c0.585-1.469,1.372-2.836,2.271-3.944c4.217-5.188,9.953-8.561,18.58-10.911
				c0.311-0.054,0.663-0.117,1.056-0.188c1.179-0.216,2.646-0.481,4.063-0.615C1036.461,59.177,1038.014,59.104,1039.542,59.104
				 M1039.542,54.104c-1.684,0-3.376,0.078-5.079,0.237c-2.256,0.211-4.486,0.694-5.719,0.891
				c-8.996,2.419-16.086,6.115-21.396,12.649c-1.259,1.555-2.294,3.386-3.035,5.25c-1.692,4.236,0.104,7.626,4.464,8.921
				c1.948,0.581,3.914,0.819,5.88,0.819c1.936,0,3.87-0.23,5.791-0.594c6.561-1.233,13.07-2.744,19.619-4.052
				c4.605-0.92,9.236-1.6,13.902-1.6c2.127,0,4.262,0.142,6.404,0.466c5.319,0.804,10.076,2.875,14.104,6.508
				c0.668,0.605,1.309,0.903,1.871,0.903c0.854,0,1.53-0.683,1.866-2.013c0.963-3.81-0.054-7.332-1.774-10.68
				c-3.527-6.854-9.393-11.048-16.361-13.759C1053.438,55.478,1046.58,54.104,1039.542,54.104L1039.542,54.104z"/>
		</g>
		<g>
			<path fill="#F9F0AF" d="M1061.396,88.638c0.377,0,0.755,0.005,1.133,0.019c2.925,0.087,5.315,0.497,7.37,1.278
				c-0.262,0.354-0.488,0.604-0.671,0.776c-4.175,4.019-9.661,6.945-17.265,9.207c-3.685,0.915-7.116,1.358-10.49,1.358
				c-2.468,0-4.923-0.233-7.506-0.719c-7.096-1.331-13.065-3.873-18.146-7.739c2.055,0.354,4.208,0.564,6.474,0.637
				c0.521,0.016,1.044,0.021,1.563,0.021c6.038,0,11.818-1.048,17.411-2.062c0.815-0.147,1.635-0.296,2.451-0.441
				c0.943-0.167,1.888-0.339,2.827-0.512C1051.678,89.524,1056.521,88.638,1061.396,88.638L1061.396,88.638 M1061.396,83.638
				c-6.28,0-12.398,1.326-18.548,2.415c-6.293,1.114-12.561,2.426-18.991,2.426c-0.47,0-0.938-0.007-1.408-0.021
				c-5.122-0.157-10.037-1.116-14.642-3.454c-0.545-0.276-1.125-0.511-1.72-0.647c-0.254-0.06-0.482-0.09-0.688-0.09
				c-1.006,0-1.407,0.706-1.049,1.956c0.938,3.242,2.953,5.801,5.38,8.021c6.638,6.071,14.479,9.573,23.314,11.229
				c2.804,0.525,5.583,0.807,8.427,0.807c3.752,0,7.617-0.486,11.809-1.535c6.539-1.938,13.668-4.897,19.415-10.432
				c1.129-1.086,2.026-2.497,2.733-3.904c0.838-1.669,0.248-3.186-1.403-4.074c-3.534-1.902-7.388-2.561-11.351-2.677
				C1062.25,83.644,1061.822,83.638,1061.396,83.638L1061.396,83.638z"/>
		</g>
	</g>
	<g>
		<g>
			<path fill="#F9F0AF" d="M1168.068,66.176c0.267,0.021,0.567,0.043,0.898,0.065c1.001,0.067,2.247,0.153,3.405,0.336
				c6.486,1.02,12.622,3.566,18.235,7.574c4.772,3.406,7.514,7.118,8.607,11.672c-2.188-1.854-4.697-3.385-7.515-4.569
				c-6.569-2.772-13.438-3.44-18.683-3.714c-2.449-0.128-4.927-0.227-7.319-0.318c-3.183-0.124-6.472-0.253-9.673-0.455
				c-3.124-0.196-5.454-0.813-7.342-1.94c-0.354-0.21-0.556-0.396-0.651-0.507c0.044-0.113,0.139-0.307,0.321-0.557
				c0.758-1.04,1.642-1.951,2.549-2.627C1155.337,67.843,1160.638,66.31,1168.068,66.176 M1168.242,61.173
				c-7.936,0.109-14.563,1.672-20.318,5.949c-1.365,1.019-2.602,2.313-3.607,3.694c-2.287,3.143-1.516,6.317,1.813,8.303
				c2.953,1.768,6.239,2.427,9.588,2.638c5.674,0.358,11.365,0.479,17.046,0.776c5.817,0.303,11.567,1.033,17,3.325
				c4.226,1.78,7.714,4.488,10.275,8.333c0.521,0.783,1.104,1.18,1.672,1.18c0.596,0,1.175-0.437,1.649-1.312
				c1.594-2.938,1.492-6.063,0.772-9.187c-1.474-6.399-5.434-11.093-10.618-14.792c-6.115-4.366-12.9-7.272-20.361-8.445
				C1171.244,61.34,1169.302,61.271,1168.242,61.173L1168.242,61.173z"/>
		</g>
		<g>
			<path fill="#F9F0AF" d="M1152.262,91.308c0.786,0.277,1.596,0.535,2.431,0.775c5.489,1.577,10.964,1.959,16.257,2.328
				c0.699,0.049,1.399,0.098,2.1,0.147c0.82,0.063,1.643,0.117,2.462,0.173c4.726,0.322,9.188,0.627,13.403,1.834
				c1.848,0.529,3.377,1.15,4.664,1.902c-4.128,2.277-9.085,3.463-15.561,3.725c-5.469-0.03-9.996-1.015-14.666-3.182
				C1158.922,96.958,1155.255,94.414,1152.262,91.308 M1142.529,80.19c-0.613,0-0.956,0.501-0.928,1.442
				c0.094,2.871,1.221,5.407,2.758,7.751c4.203,6.405,9.943,10.944,16.889,14.165c5.113,2.372,10.391,3.622,16.855,3.646
				c5.806-0.225,12.313-1.174,18.219-4.53c1.158-0.66,2.195-1.638,3.074-2.65c1.045-1.202,0.877-2.577-0.303-3.659
				c-2.519-2.313-5.56-3.662-8.809-4.592c-5.515-1.579-11.206-1.767-16.87-2.187c-5.824-0.432-11.673-0.667-17.346-2.299
				c-4.193-1.207-8.053-3.028-11.359-5.925c-0.392-0.342-0.823-0.657-1.282-0.896C1143.087,80.277,1142.784,80.19,1142.529,80.19
				L1142.529,80.19z"/>
		</g>
	</g>
	<g>
		<g>
			<path fill="#F9F0AF" d="M1099.507,54.535c4.112,0,8.431,0.999,13.572,3.14c0.248,0.133,0.533,0.281,0.845,0.444
				c0.958,0.499,2.15,1.12,3.225,1.805c5.942,3.79,10.886,8.936,14.688,15.292c3.295,5.512,4.387,10.436,3.434,15.498
				c-0.051,0.271-0.104,0.538-0.162,0.793c-1.367-3.056-3.291-5.896-5.756-8.487c-5.203-5.479-11.593-9.045-16.573-11.536
				c-2.332-1.168-4.704-2.314-6.999-3.428c-3.063-1.48-6.228-3.016-9.274-4.584c-3.014-1.549-5.063-3.177-6.457-5.128
				c-0.431-0.602-0.516-0.99-0.522-1.034c0.002-0.003,0.135-0.264,0.756-0.628c1.203-0.705,2.486-1.229,3.703-1.513
				C1095.822,54.743,1097.63,54.535,1099.507,54.535 M1099.507,49.535c-2.208,0-4.417,0.245-6.653,0.763
				c-1.771,0.413-3.53,1.146-5.104,2.07c-3.574,2.091-4.174,5.521-1.771,8.883c2.133,2.984,5.062,5.034,8.239,6.668
				c5.392,2.771,10.899,5.321,16.32,8.035c5.557,2.776,10.858,5.947,15.188,10.508c3.366,3.543,5.621,7.677,6.482,12.523
				c0.228,1.29,0.84,1.979,1.677,1.979c0.479,0,1.028-0.224,1.621-0.688c2.813-2.191,4.05-5.284,4.679-8.645
				c1.294-6.88-0.571-13.155-4.058-18.983c-4.113-6.878-9.501-12.611-16.289-16.94c-1.732-1.105-3.603-2.003-4.595-2.549
				C1109.786,50.863,1104.65,49.535,1099.507,49.535L1099.507,49.535z"/>
		</g>
		<g>
			<path fill="#F9F0AF" d="M1085.997,74.579c0.937,0.933,1.942,1.844,3.021,2.735c4.661,3.86,9.824,6.562,14.817,9.171
				c0.668,0.352,1.336,0.698,2.003,1.053c0.768,0.403,1.537,0.806,2.309,1.206c4.5,2.342,8.75,4.554,12.39,7.563
				c1.787,1.479,3.135,2.9,4.122,4.367c-0.08,0.013-0.153,0.021-0.221,0.029c-0.918,0.097-1.86,0.146-2.809,0.146
				c-4.382,0-8.984-0.998-14.476-3.14c-5.382-2.39-9.422-5.308-13.091-9.453C1090.236,83.936,1087.572,79.425,1085.997,74.579
				 M1081.62,60.677c-0.446,0-0.846,0.369-1.14,1.101c-1.136,2.847-1.117,5.806-0.616,8.747c1.375,8.055,5.045,14.938,10.455,21.049
				c3.979,4.5,8.604,7.973,14.911,10.756c4.864,1.904,10.444,3.521,16.396,3.521c1.1,0,2.21-0.056,3.332-0.174
				c1.414-0.149,2.845-0.659,4.137-1.275c1.53-0.729,1.954-2.144,1.268-3.7c-1.475-3.335-3.867-5.951-6.646-8.246
				c-4.713-3.897-10.189-6.512-15.547-9.336c-5.507-2.908-11.118-5.639-15.965-9.65c-3.584-2.97-6.572-6.396-8.569-10.635
				c-0.234-0.504-0.521-0.996-0.871-1.429C1082.374,60.918,1081.98,60.677,1081.62,60.677L1081.62,60.677z"/>
		</g>
	</g>
	<g>
		<g>
			<path fill="#F9F0AF" d="M1247.985,60.625c3.433,0,6.436,0.772,9.177,2.37c-2.85,0.3-5.696,1.061-8.494,2.271
				c-6.543,2.832-11.771,7.332-15.596,10.936c-1.803,1.695-3.602,3.435-5.338,5.114c-2.273,2.198-4.625,4.474-6.969,6.632
				c-2.303,2.12-4.356,3.381-6.476,3.964c-0.365,0.101-0.614,0.122-0.758,0.122c-0.022,0-0.043,0-0.063-0.001
				c-0.053-0.111-0.126-0.313-0.181-0.614c-0.229-1.268-0.273-2.536-0.136-3.663c0.682-5.479,3.237-10.367,8.284-15.832
				c0.183-0.163,0.387-0.35,0.608-0.553c0.754-0.688,1.692-1.545,2.651-2.276c5.215-3.981,11.297-6.653,18.078-7.942
				C1244.616,60.802,1246.367,60.625,1247.985,60.625 M1247.985,55.625c-2.024,0-4.074,0.222-6.141,0.614
				c-7.383,1.401-14.175,4.297-20.178,8.88c-1.534,1.171-2.929,2.522-3.729,3.226c-5.403,5.807-8.858,11.678-9.744,18.793
				c-0.207,1.693-0.125,3.483,0.177,5.164c0.553,3.07,2.487,4.731,5.162,4.731c0.653,0,1.354-0.102,2.09-0.305
				c3.317-0.913,6.063-2.832,8.532-5.104c4.181-3.854,8.198-7.883,12.343-11.781c4.241-3.996,8.744-7.645,14.155-9.986
				c3.01-1.304,6.103-2.008,9.283-2.008c1.267,0,2.547,0.111,3.841,0.341c0.249,0.045,0.479,0.066,0.693,0.066
				c1.414,0,2.021-0.951,1.507-2.556c-1.024-3.188-3.352-5.272-6.104-6.91C1256.095,56.539,1252.095,55.625,1247.985,55.625
				L1247.985,55.625z"/>
		</g>
		<g>
			<path fill="#F9F0AF" d="M1262.4,75.816c-1.204,4.556-3.773,8.956-8.063,13.817c-3.803,3.929-7.642,6.521-12.437,8.4
				c-4.574,1.793-8.904,2.673-13.231,2.688c0.744-0.377,1.49-0.784,2.239-1.221c4.926-2.872,8.978-6.557,12.896-10.117
				c0.527-0.479,1.056-0.958,1.585-1.437c0.604-0.546,1.203-1.094,1.806-1.642c3.504-3.199,6.813-6.221,10.609-8.438
				C1259.464,76.901,1260.969,76.227,1262.4,75.816 M1264.953,70.355c-0.087,0-0.175,0.003-0.266,0.011
				c-3.411,0.221-6.488,1.482-9.405,3.189c-4.952,2.894-9.021,6.875-13.239,10.682c-4.338,3.91-8.552,7.976-13.65,10.946
				c-3.771,2.198-7.755,3.727-12.135,4.115c-0.518,0.046-1.044,0.138-1.536,0.308c-1.239,0.42-1.4,1.241-0.409,2.135
				c2.14,1.919,4.751,2.854,7.506,3.363c2.27,0.418,4.512,0.619,6.73,0.619c5.157,0,10.197-1.082,15.179-3.034
				c5.249-2.057,9.8-5.006,14.286-9.663c3.85-4.351,7.662-9.708,9.315-16.298c0.323-1.294,0.338-2.717,0.213-4.057
				C1267.402,71.178,1266.406,70.355,1264.953,70.355L1264.953,70.355z"/>
		</g>
	</g>
	<g>
		<g>
			<path fill="#F9F0AF" d="M1304.956,59.104c6.255,0,12.554,1.215,18.722,3.612c6.619,2.574,11.109,6.299,13.729,11.388
				c0.399,0.776,0.723,1.504,0.97,2.194c-3.529-2.101-7.492-3.491-11.841-4.147c-2.289-0.347-4.695-0.521-7.152-0.521
				c-4.416,0-9.006,0.521-14.882,1.696c-2.828,0.563-5.68,1.172-8.438,1.76c-3.651,0.779-7.431,1.585-11.128,2.281
				c-1.813,0.341-3.402,0.506-4.867,0.506c-1.616,0-3.072-0.199-4.456-0.612c-0.985-0.293-1.393-0.675-1.471-0.836
				c-0.071-0.146-0.104-0.612,0.229-1.442c0.585-1.469,1.372-2.836,2.271-3.944c4.217-5.188,9.953-8.561,18.58-10.911
				c0.311-0.054,0.663-0.117,1.056-0.188c1.179-0.216,2.646-0.481,4.063-0.615C1301.875,59.177,1303.428,59.104,1304.956,59.104
				 M1304.956,54.104c-1.684,0-3.376,0.078-5.079,0.237c-2.256,0.211-4.486,0.694-5.719,0.891
				c-8.996,2.419-16.086,6.115-21.396,12.649c-1.259,1.555-2.294,3.386-3.035,5.25c-1.692,4.236,0.104,7.626,4.464,8.921
				c1.948,0.581,3.915,0.819,5.88,0.819c1.936,0,3.87-0.23,5.791-0.594c6.561-1.233,13.07-2.744,19.619-4.052
				c4.605-0.92,9.236-1.6,13.902-1.6c2.127,0,4.262,0.142,6.404,0.466c5.319,0.804,10.076,2.875,14.104,6.508
				c0.668,0.605,1.309,0.903,1.871,0.903c0.854,0,1.53-0.683,1.866-2.013c0.963-3.81-0.054-7.332-1.774-10.68
				c-3.527-6.854-9.393-11.048-16.361-13.759C1318.854,55.478,1311.994,54.104,1304.956,54.104L1304.956,54.104z"/>
		</g>
		<g>
			<path fill="#F9F0AF" d="M1326.811,88.638c0.377,0,0.756,0.005,1.134,0.019c2.925,0.087,5.315,0.497,7.37,1.278
				c-0.262,0.354-0.488,0.604-0.672,0.776c-4.174,4.019-9.66,6.945-17.264,9.207c-3.685,0.915-7.116,1.358-10.49,1.358
				c-2.468,0-4.923-0.233-7.506-0.719c-7.096-1.331-13.065-3.873-18.146-7.739c2.055,0.354,4.208,0.564,6.474,0.637
				c0.522,0.016,1.044,0.021,1.563,0.021c6.037,0,11.818-1.048,17.41-2.062c0.816-0.147,1.636-0.296,2.452-0.441
				c0.943-0.167,1.888-0.339,2.827-0.512C1317.092,89.524,1321.938,88.638,1326.811,88.638L1326.811,88.638 M1326.811,83.638
				c-6.279,0-12.397,1.326-18.547,2.415c-6.293,1.114-12.561,2.426-18.99,2.426c-0.471,0-0.938-0.007-1.409-0.021
				c-5.122-0.157-10.037-1.116-14.642-3.454c-0.545-0.276-1.126-0.511-1.72-0.647c-0.254-0.06-0.483-0.09-0.688-0.09
				c-1.005,0-1.407,0.706-1.048,1.956c0.938,3.242,2.951,5.801,5.379,8.021c6.638,6.071,14.479,9.573,23.314,11.229
				c2.804,0.525,5.583,0.807,8.427,0.807c3.752,0,7.617-0.486,11.809-1.535c6.539-1.938,13.668-4.897,19.415-10.432
				c1.129-1.086,2.026-2.497,2.733-3.904c0.839-1.669,0.248-3.186-1.403-4.074c-3.534-1.902-7.388-2.561-11.351-2.677
				C1327.664,83.644,1327.236,83.638,1326.811,83.638L1326.811,83.638z"/>
		</g>
	</g>
	<g>
		<g>
			<path fill="#F9F0AF" d="M31.857,10.482L31.857,10.482c1.542,0,3.035,0.152,4.553,0.464c1.123,0.233,2.309,0.687,3.436,1.31
				c0.27,0.147,0.436,0.282,0.524,0.367c-0.041,0.142-0.146,0.396-0.379,0.736c-1.231,1.817-3.083,3.361-5.83,4.859
				c-2.813,1.535-5.738,3.042-8.567,4.499c-2.132,1.098-4.337,2.233-6.502,3.385C14.45,28.568,8.508,32.077,3.727,37.367
				c-2.05,2.268-3.679,4.713-4.877,7.316C-2.082,40.1-1.169,35.576,1.717,30.47c3.397-6.007,7.88-10.911,13.321-14.574
				c0.989-0.665,2.092-1.273,2.978-1.765c0.277-0.153,0.53-0.293,0.753-0.42C23.719,11.509,27.882,10.482,31.857,10.482
				 M31.857,5.482c-5.056,0-10.054,1.381-15.356,3.77c-0.92,0.535-2.649,1.42-4.25,2.497C5.986,15.965,1.066,21.468-2.634,28.01
				c-3.134,5.546-4.738,11.474-3.368,17.896c0.668,3.136,1.9,6.007,4.587,7.998c0.551,0.408,1.06,0.605,1.5,0.605
				c0.804,0,1.379-0.659,1.564-1.893C2.343,48.05,4.364,44.12,7.438,40.72c3.953-4.374,8.854-7.467,14.001-10.202
				c5.021-2.67,10.129-5.186,15.119-7.91c2.943-1.604,5.643-3.594,7.573-6.441c2.175-3.205,1.533-6.411-1.868-8.288
				c-1.497-0.828-3.166-1.479-4.836-1.826C35.551,5.666,33.7,5.482,31.857,5.482L31.857,5.482z"/>
		</g>
		<g>
			<path fill="#F9F0AF" d="M43.725,29.801c-1.4,4.082-3.648,7.938-6.795,11.674c-3.313,3.937-7,6.738-11.944,9.08
				c-5.31,2.223-9.763,3.259-14.006,3.259c-0.559,0-1.119-0.02-1.666-0.056c0.848-1.226,1.971-2.435,3.423-3.694
				c3.317-2.882,7.238-5.047,11.39-7.34c0.713-0.394,1.426-0.787,2.138-1.186c0.621-0.35,1.244-0.693,1.867-1.039
				c4.631-2.569,9.42-5.228,13.72-8.972C42.504,30.961,43.129,30.385,43.725,29.801 M48.218,15.523
				c-0.344,0-0.713,0.235-1.076,0.708c-0.317,0.412-0.574,0.879-0.784,1.356c-1.773,4.021-4.499,7.305-7.791,10.171
				c-4.45,3.875-9.65,6.563-14.747,9.417c-4.957,2.774-10.034,5.352-14.364,9.113c-2.552,2.215-4.737,4.725-6.041,7.885
				c-0.611,1.479-0.181,2.795,1.271,3.445c1.227,0.546,2.58,0.987,3.909,1.099c0.801,0.064,1.595,0.096,2.383,0.096
				c5.866,0,11.321-1.705,16.042-3.688c5.85-2.755,10.105-6.118,13.734-10.431c4.932-5.854,8.215-12.395,9.318-19.979
				c0.402-2.771,0.351-5.546-0.78-8.188C49.006,15.859,48.63,15.523,48.218,15.523L48.218,15.523z"/>
		</g>
	</g>
	<g>
		<g>
			<path fill="#F9F0AF" d="M101.232,62.625L101.232,62.625c1.617,0,3.368,0.177,5.204,0.524c6.78,1.288,12.862,3.961,18.077,7.941
				c0.953,0.728,1.887,1.58,2.638,2.265c0.229,0.209,0.438,0.399,0.625,0.567c5.043,5.461,7.6,10.352,8.281,15.822
				c0.14,1.137,0.093,2.402-0.135,3.669c-0.055,0.305-0.127,0.505-0.18,0.616c-0.018,0.001-0.037,0.001-0.06,0.001
				c-0.144,0-0.393-0.021-0.763-0.123c-2.114-0.582-4.169-1.843-6.47-3.966c-2.358-2.172-4.725-4.461-7.014-6.674
				c-1.723-1.666-3.504-3.389-5.289-5.066c-3.825-3.604-9.054-8.104-15.597-10.938c-2.799-1.213-5.646-1.974-8.496-2.271
				C94.794,63.4,97.798,62.625,101.232,62.625 M101.231,57.625c-4.11,0-8.11,0.914-11.891,3.165c-2.754,1.638-5.08,3.725-6.104,6.91
				c-0.517,1.604,0.092,2.556,1.505,2.556c0.213,0,0.446-0.021,0.695-0.066c1.294-0.229,2.574-0.341,3.84-0.341
				c3.182,0,6.274,0.704,9.285,2.008c5.41,2.344,9.914,5.99,14.155,9.986c4.14,3.898,8.161,7.929,12.343,11.781
				c2.465,2.272,5.214,4.191,8.531,5.104c0.735,0.203,1.435,0.305,2.09,0.305c2.674,0,4.608-1.661,5.161-4.731
				c0.304-1.681,0.385-3.471,0.177-5.164c-0.886-7.115-4.339-12.986-9.744-18.793c-0.801-0.701-2.195-2.055-3.728-3.226
				c-6.003-4.583-12.794-7.479-20.178-8.88C105.305,57.847,103.255,57.625,101.231,57.625L101.231,57.625z"/>
		</g>
		<g>
			<path fill="#F9F0AF" d="M86.813,77.816c1.433,0.41,2.938,1.086,4.597,2.06c3.795,2.215,7.104,5.234,10.607,8.435
				c0.601,0.548,1.201,1.098,1.807,1.645c0.528,0.476,1.054,0.954,1.581,1.433c3.919,3.563,7.972,7.247,12.899,10.12
				c0.749,0.437,1.495,0.843,2.238,1.22c-4.327-0.017-8.657-0.896-13.232-2.688c-4.794-1.879-8.633-4.475-12.436-8.401
				C90.587,86.771,88.019,82.37,86.813,77.816 M84.26,72.355c-1.452,0-2.447,0.822-2.588,2.316c-0.124,1.34-0.111,2.763,0.213,4.057
				c1.654,6.59,5.466,11.947,9.315,16.298c4.487,4.657,9.038,7.606,14.285,9.663c4.982,1.952,10.022,3.034,15.179,3.034
				c2.221,0,4.464-0.201,6.733-0.619c2.754-0.509,5.365-1.444,7.504-3.363c0.992-0.894,0.831-1.715-0.41-2.135
				c-0.492-0.17-1.018-0.262-1.536-0.308c-4.38-0.391-8.362-1.917-12.134-4.115c-5.098-2.973-9.312-7.036-13.649-10.946
				c-4.218-3.807-8.288-7.788-13.241-10.682c-2.916-1.707-5.994-2.971-9.406-3.189C84.435,72.358,84.347,72.355,84.26,72.355
				L84.26,72.355z"/>
		</g>
	</g>
	<g>
		<g>
			<path fill="#F9F0AF" d="M45.262,54.104v5c1.527,0,3.079,0.072,4.612,0.216c1.417,0.134,2.882,0.4,4.06,0.615
				c0.392,0.071,0.748,0.136,1.06,0.188c8.627,2.353,14.364,5.724,18.575,10.903c0.902,1.113,1.69,2.481,2.279,3.958
				c0.329,0.823,0.297,1.29,0.227,1.438c-0.078,0.162-0.486,0.544-1.476,0.838c-1.379,0.412-2.835,0.611-4.452,0.611
				c-1.465,0-3.057-0.165-4.866-0.506c-3.699-0.696-7.475-1.504-11.125-2.28c-2.759-0.588-5.611-1.197-8.439-1.761
				c-5.877-1.175-10.467-1.695-14.882-1.696c-2.457,0-4.863,0.176-7.149,0.521c-4.348,0.657-8.309,2.046-11.845,4.151
				c0.248-0.691,0.571-1.421,0.972-2.198c2.618-5.088,7.109-8.813,13.728-11.387c6.167-2.397,12.466-3.612,18.722-3.612
				L45.262,54.104 M45.261,54.104c-7.039,0-13.896,1.373-20.533,3.952c-6.971,2.711-12.835,6.904-16.362,13.759
				c-1.723,3.348-2.738,6.87-1.777,10.68c0.336,1.331,1.015,2.013,1.868,2.013c0.564,0,1.204-0.298,1.872-0.903
				c4.027-3.633,8.783-5.704,14.104-6.508c2.143-0.324,4.276-0.466,6.403-0.466c4.665,0.001,9.295,0.68,13.904,1.6
				c6.548,1.308,13.059,2.816,19.618,4.054c1.921,0.359,3.855,0.592,5.792,0.592c1.965,0,3.931-0.238,5.881-0.819
				c4.358-1.295,6.156-4.685,4.463-8.921c-0.744-1.864-1.778-3.695-3.037-5.25c-5.31-6.534-12.401-10.229-21.396-12.649
				c-1.233-0.194-3.462-0.68-5.717-0.891C48.636,54.183,46.944,54.104,45.261,54.104L45.261,54.104z"/>
		</g>
		<g>
			<path fill="#F9F0AF" d="M23.406,88.638c4.871,0,9.714,0.887,14.84,1.825c0.944,0.173,1.889,0.346,2.834,0.514
				c0.818,0.146,1.635,0.293,2.453,0.44c5.591,1.014,11.373,2.062,17.41,2.062c0.521,0,1.042-0.008,1.563-0.021
				c2.266-0.07,4.42-0.28,6.476-0.637c-5.082,3.866-11.053,6.408-18.147,7.738c-2.583,0.484-5.039,0.72-7.506,0.72
				c-3.375,0-6.807-0.443-10.491-1.358c-7.603-2.261-13.09-5.188-17.266-9.209c-0.181-0.174-0.409-0.424-0.668-0.775
				c2.053-0.779,4.445-1.19,7.37-1.277C22.651,88.643,23.029,88.638,23.406,88.638 M23.406,83.638c-0.426,0-0.854,0.006-1.282,0.021
				c-3.964,0.116-7.816,0.772-11.35,2.677c-1.654,0.891-2.24,2.405-1.403,4.074c0.708,1.407,1.606,2.818,2.735,3.904
				c5.746,5.532,12.875,8.494,19.414,10.432c4.189,1.049,8.056,1.533,11.808,1.533c2.844,0,5.623-0.277,8.427-0.805
				c8.833-1.656,16.677-5.158,23.316-11.229c2.427-2.222,4.442-4.778,5.378-8.021c0.36-1.25-0.041-1.956-1.047-1.956
				c-0.205,0.001-0.435,0.03-0.689,0.09c-0.594,0.139-1.176,0.371-1.719,0.647c-4.604,2.338-9.518,3.297-14.642,3.454
				c-0.471,0.015-0.94,0.021-1.41,0.021c-6.43,0-12.698-1.312-18.991-2.426C35.802,84.964,29.686,83.638,23.406,83.638
				L23.406,83.638z"/>
		</g>
	</g>
	<g>
		<g>
			<path fill="#F9F0AF" d="M634.532,62.459c5.511,0,11.063,1.071,16.501,3.186c5.854,2.276,9.652,5.422,11.959,9.902
				c0.082,0.159,0.16,0.313,0.233,0.47c-2.848-1.479-5.979-2.482-9.368-2.995c-2.068-0.313-4.244-0.473-6.466-0.473
				c-3.974,0-8.099,0.47-13.372,1.523c-2.525,0.503-5.072,1.046-7.538,1.569c-3.253,0.693-6.616,1.41-9.907,2.029
				c-1.582,0.298-2.971,0.441-4.242,0.441c-1.389,0-2.637-0.172-3.823-0.523c-0.618-0.184-0.881-0.385-0.964-0.461
				c-0.002-0.103,0.015-0.372,0.207-0.854c0.502-1.262,1.176-2.433,1.943-3.38c3.681-4.525,8.702-7.477,16.266-9.543
				c0.277-0.047,0.591-0.104,0.936-0.167c1.038-0.188,2.33-0.424,3.568-0.539C631.817,62.522,633.186,62.459,634.532,62.459
				 M634.532,57.459c-1.501,0-3.014,0.067-4.531,0.212c-2.013,0.188-4.001,0.618-5.102,0.792
				c-8.022,2.158-14.349,5.456-19.083,11.282c-1.123,1.387-2.048,3.021-2.708,4.683c-1.513,3.778,0.092,6.802,3.979,7.956
				c1.74,0.52,3.493,0.731,5.246,0.731c1.727,0,3.453-0.206,5.166-0.528c5.848-1.103,11.657-2.447,17.499-3.611
				c4.107-0.818,8.236-1.427,12.395-1.427c1.898,0,3.805,0.126,5.718,0.416c4.743,0.716,8.986,2.563,12.575,5.804
				c0.599,0.539,1.17,0.807,1.673,0.807c0.761,0,1.363-0.607,1.665-1.793c0.856-3.397-0.05-6.541-1.586-9.524
				c-3.146-6.112-8.375-9.854-14.593-12.271C646.925,58.684,640.81,57.459,634.532,57.459L634.532,57.459z"/>
		</g>
		<g>
			<path fill="#F9F0AF" d="M654.021,88.799c0.329,0,0.662,0.005,0.994,0.015c2.207,0.065,4.062,0.344,5.668,0.854
				c-0.018,0.019-0.034,0.036-0.054,0.053c-3.655,3.521-8.476,6.088-15.165,8.08c-3.232,0.803-6.246,1.193-9.206,1.193
				c-2.168,0-4.328-0.207-6.603-0.635c-5.423-1.017-10.099-2.836-14.159-5.521c1.175,0.134,2.385,0.22,3.634,0.26
				c0.466,0.015,0.932,0.021,1.396,0.021c5.439,0,10.631-0.941,15.648-1.854c0.727-0.131,1.45-0.263,2.173-0.391
				c0.852-0.15,1.7-0.308,2.552-0.461C645.443,89.583,649.731,88.799,654.021,88.799L654.021,88.799 M654.021,83.799
				c-5.604,0-11.059,1.183-16.539,2.152c-5.618,0.993-11.216,2.166-16.953,2.166c-0.414,0-0.828-0.008-1.244-0.021
				c-4.57-0.145-8.955-0.996-13.062-3.082c-0.482-0.246-1.004-0.455-1.532-0.579c-0.228-0.053-0.432-0.079-0.612-0.079
				c-0.898,0-1.257,0.629-0.937,1.745c0.833,2.893,2.635,5.175,4.798,7.154c5.92,5.415,12.917,8.539,20.795,10.016
				c2.504,0.471,4.983,0.721,7.522,0.721c3.345,0,6.79-0.436,10.523-1.369c5.833-1.729,12.19-4.369,17.313-9.305
				c1.009-0.969,1.811-2.226,2.44-3.481c0.746-1.489,0.223-2.84-1.251-3.634c-3.153-1.698-6.587-2.282-10.123-2.39
				C654.784,83.804,654.401,83.799,654.021,83.799L654.021,83.799z"/>
		</g>
	</g>
	<g>
		<g>
			<path fill="#F9F0AF" d="M741.033,79.206c1.114,0,2.157,0.102,3.192,0.311c1.132,0.229,1.729,0.63,1.908,0.933
				c0.205,0.342,0.183,1.036-0.063,1.858c-0.502,1.68-1.23,3.26-2.104,4.563c-4.063,6.04-9.944,10.253-19.05,13.639
				c-0.326,0.087-0.701,0.19-1.113,0.306c-1.253,0.35-2.813,0.781-4.337,1.066c-3.218,0.597-6.498,0.899-9.751,0.899
				c-5.188,0-10.49-0.771-15.757-2.287c-7.434-2.144-12.675-5.748-16.025-11.028c-0.737-1.163-1.295-2.236-1.677-3.255
				c4.18,2.165,8.82,3.411,13.857,3.713c0.949,0.057,1.92,0.085,2.888,0.085c7.739,0,15.006-1.853,20.472-3.466
				c2.962-0.875,5.947-1.799,8.834-2.693c3.852-1.189,7.83-2.425,11.743-3.533C736.683,79.568,738.966,79.206,741.033,79.206
				 M741.033,74.206c-2.825,0-5.612,0.521-8.35,1.3c-6.904,1.956-13.736,4.207-20.627,6.24c-6.232,1.841-12.547,3.262-19.057,3.262
				c-0.86,0-1.722-0.024-2.589-0.076c-5.78-0.347-11.075-2.103-15.742-5.604c-0.707-0.532-1.363-0.792-1.932-0.792
				c-0.997,0-1.724,0.801-1.968,2.344c-0.66,4.173,0.771,7.849,2.938,11.267c4.443,7.002,11.134,10.929,18.863,13.153
				c5.65,1.629,11.375,2.482,17.141,2.482c3.54,0,7.096-0.321,10.663-0.983c2.396-0.447,4.738-1.181,6.039-1.512
				c9.404-3.463,16.644-8.11,21.697-15.624c1.199-1.79,2.128-3.854,2.746-5.922c1.401-4.702-0.854-8.159-5.647-9.124
				C743.813,74.332,742.418,74.206,741.033,74.206L741.033,74.206z"/>
		</g>
		<g>
			<path fill="#F9F0AF" d="M712.064,56.642c1.424,0,2.9,0.072,4.396,0.216c8.369,0.796,15.479,3.232,21.658,7.436
				c-1.706-0.199-3.468-0.298-5.295-0.298c-1.031,0-2.104,0.03-3.183,0.097c-7.055,0.422-13.656,2.245-20.045,4.009
				c-0.862,0.238-1.729,0.479-2.594,0.712c-0.998,0.271-1.994,0.549-2.99,0.826c-5.832,1.621-11.341,3.153-17.013,3.497
				c-0.756,0.047-1.489,0.069-2.177,0.069c-2.414,0-4.533-0.287-6.434-0.877c0.3-0.547,0.608-1.011,0.924-1.371
				c4.13-4.765,9.773-8.465,17.76-11.646C702.317,57.49,707.083,56.642,712.064,56.642 M712.064,51.642
				c-5.403,0-10.806,0.91-16.736,2.98c-6.818,2.707-14.168,6.572-19.79,13.058c-1.104,1.273-1.929,2.869-2.551,4.45
				c-0.736,1.869,0.041,3.435,1.896,4.228c3.196,1.366,6.538,1.848,9.94,1.848c0.824,0,1.648-0.027,2.479-0.078
				c7.231-0.438,14.088-2.607,21.013-4.489c7.117-1.935,14.185-4.11,21.625-4.555c0.965-0.06,1.927-0.088,2.883-0.088
				c4.495,0,8.884,0.672,13.137,2.366c0.611,0.244,1.257,0.438,1.905,0.527c0.183,0.025,0.353,0.038,0.51,0.038
				c1.259,0,1.71-0.811,1.168-2.208c-1.314-3.381-3.724-5.928-6.54-8.07c-7.702-5.859-16.444-8.854-26.067-9.769
				C715.302,51.724,713.683,51.642,712.064,51.642L712.064,51.642z"/>
		</g>
	</g>
	<g>
		<g>
			<path fill="#F9F0AF" d="M502.039,66.176c0.266,0.021,0.568,0.043,0.898,0.065c1.002,0.067,2.246,0.153,3.403,0.336
				c6.486,1.02,12.621,3.566,18.236,7.574c4.772,3.406,7.514,7.117,8.606,11.668c-2.187-1.854-4.695-3.381-7.513-4.565
				c-6.569-2.772-13.436-3.44-18.683-3.714c-2.45-0.128-4.926-0.227-7.321-0.318c-3.181-0.124-6.471-0.253-9.671-0.455
				c-3.123-0.196-5.453-0.813-7.341-1.94c-0.354-0.21-0.557-0.396-0.652-0.508c0.044-0.112,0.139-0.306,0.32-0.554
				c0.759-1.041,1.644-1.952,2.552-2.63C489.306,67.843,494.607,66.31,502.039,66.176 M502.212,61.173
				c-7.934,0.109-14.563,1.672-20.317,5.949c-1.365,1.019-2.604,2.313-3.608,3.694c-2.289,3.143-1.517,6.317,1.812,8.303
				c2.953,1.768,6.239,2.427,9.586,2.638c5.676,0.358,11.367,0.479,17.047,0.776c5.818,0.303,11.567,1.033,17,3.325
				c4.226,1.78,7.716,4.488,10.275,8.333c0.521,0.783,1.104,1.18,1.67,1.18c0.598,0,1.175-0.437,1.649-1.312
				c1.594-2.938,1.495-6.063,0.772-9.187c-1.472-6.399-5.433-11.093-10.617-14.792c-6.116-4.366-12.903-7.272-20.363-8.445
				C505.213,61.34,503.271,61.271,502.212,61.173L502.212,61.173z"/>
		</g>
		<g>
			<path fill="#F9F0AF" d="M486.23,91.309c0.785,0.276,1.596,0.534,2.43,0.774c5.492,1.578,10.965,1.959,16.258,2.328
				c0.7,0.049,1.401,0.098,2.099,0.147c0.82,0.063,1.643,0.117,2.462,0.173c4.725,0.322,9.187,0.627,13.402,1.834
				c1.848,0.529,3.378,1.15,4.664,1.901c-4.127,2.278-9.084,3.464-15.558,3.726c-5.472-0.03-9.997-1.015-14.665-3.182
				C492.893,96.959,489.226,94.415,486.23,91.309 M476.498,80.19c-0.613,0-0.955,0.501-0.925,1.442
				c0.092,2.871,1.217,5.407,2.755,7.751c4.206,6.405,9.945,10.944,16.89,14.165c5.111,2.372,10.391,3.622,16.855,3.646
				c5.805-0.225,12.311-1.174,18.216-4.53c1.159-0.66,2.197-1.638,3.078-2.65c1.042-1.202,0.875-2.577-0.302-3.659
				c-2.52-2.313-5.563-3.662-8.811-4.592c-5.514-1.579-11.206-1.767-16.87-2.187c-5.825-0.432-11.673-0.667-17.346-2.299
				c-4.195-1.207-8.051-3.028-11.36-5.925c-0.391-0.342-0.821-0.657-1.28-0.896C477.056,80.277,476.753,80.19,476.498,80.19
				L476.498,80.19z"/>
		</g>
	</g>
	<g>
		<g>
			<path fill="#F9F0AF" d="M167.844,70.031c0.262,0.021,0.559,0.042,0.884,0.063c1.004,0.068,2.253,0.154,3.419,0.337
				c6.483,1.021,12.618,3.567,18.234,7.576c4.775,3.407,7.515,7.117,8.608,11.668c-2.188-1.854-4.697-3.382-7.513-4.568
				c-6.566-2.771-13.434-3.438-18.683-3.714c-2.446-0.128-4.918-0.225-7.31-0.315c-3.186-0.124-6.479-0.253-9.685-0.456
				c-3.12-0.195-5.45-0.813-7.339-1.941c-0.352-0.21-0.554-0.395-0.651-0.506c0.044-0.114,0.139-0.306,0.322-0.557
				c0.754-1.037,1.639-1.948,2.549-2.628C155.113,71.694,160.414,70.162,167.844,70.031 M168.017,65.027
				c-7.934,0.107-14.563,1.673-20.318,5.948c-1.367,1.021-2.603,2.315-3.609,3.698c-2.288,3.141-1.515,6.313,1.811,8.299
				c2.954,1.77,6.241,2.428,9.587,2.638c5.674,0.359,11.367,0.479,17.046,0.776c5.819,0.304,11.569,1.036,17,3.327
				c4.224,1.78,7.715,4.488,10.276,8.333c0.521,0.783,1.103,1.178,1.67,1.178c0.596,0,1.175-0.435,1.649-1.308
				c1.593-2.942,1.495-6.065,0.774-9.189c-1.472-6.396-5.433-11.091-10.618-14.79c-6.118-4.366-12.903-7.271-20.363-8.443
				C171.018,65.193,169.076,65.124,168.017,65.027L168.017,65.027z"/>
		</g>
		<g>
			<path fill="#F9F0AF" d="M152.035,95.163c0.786,0.275,1.595,0.535,2.428,0.773c5.471,1.572,10.923,1.955,16.196,2.325
				c0.72,0.05,1.44,0.103,2.163,0.154c0.813,0.06,1.626,0.115,2.439,0.171c4.731,0.321,9.201,0.625,13.423,1.833
				c1.848,0.529,3.377,1.148,4.663,1.902c-4.125,2.275-9.082,3.463-15.556,3.725c-5.469-0.033-9.997-1.017-14.667-3.183
				C158.695,100.813,155.028,98.27,152.035,95.163 M142.302,84.046c-0.613,0-0.956,0.501-0.926,1.439
				c0.093,2.872,1.219,5.409,2.755,7.75c4.205,6.408,9.945,10.945,16.89,14.165c5.113,2.372,10.39,3.622,16.856,3.646
				c5.805-0.225,12.311-1.173,18.217-4.533c1.16-0.658,2.198-1.634,3.078-2.647c1.041-1.201,0.875-2.575-0.303-3.657
				c-2.518-2.313-5.56-3.663-8.808-4.594c-5.514-1.577-11.206-1.768-16.871-2.186c-5.825-0.434-11.674-0.668-17.346-2.299
				c-4.196-1.208-8.052-3.028-11.361-5.925c-0.391-0.346-0.822-0.658-1.283-0.897C142.859,84.133,142.558,84.046,142.302,84.046
				L142.302,84.046z"/>
		</g>
	</g>
	<g>
		<g>
			<path fill="#F9F0AF" d="M379.124,64.868c0.266,0.021,0.569,0.043,0.901,0.063c1,0.069,2.245,0.154,3.403,0.336
				c6.487,1.021,12.622,3.568,18.235,7.575c4.774,3.408,7.515,7.12,8.608,11.67c-2.188-1.854-4.696-3.381-7.514-4.568
				c-6.569-2.771-13.438-3.438-18.684-3.713c-2.457-0.129-4.941-0.226-7.344-0.318c-3.174-0.124-6.456-0.252-9.647-0.454
				c-3.125-0.197-5.457-0.813-7.342-1.941c-0.353-0.21-0.555-0.395-0.652-0.505c0.044-0.115,0.139-0.308,0.322-0.559
				c0.756-1.039,1.64-1.948,2.55-2.627C366.393,66.534,371.693,65.001,379.124,64.868 M379.297,59.865
				c-7.934,0.106-14.563,1.672-20.317,5.947c-1.367,1.021-2.604,2.315-3.609,3.696c-2.289,3.142-1.516,6.318,1.811,8.302
				c2.953,1.768,6.241,2.425,9.587,2.639c5.673,0.356,11.367,0.479,17.045,0.775c5.819,0.302,11.57,1.034,17.001,3.326
				c4.224,1.781,7.714,4.488,10.273,8.332c0.521,0.784,1.104,1.179,1.671,1.179c0.598,0,1.175-0.435,1.648-1.308
				c1.594-2.942,1.495-6.065,0.773-9.188c-1.472-6.397-5.433-11.092-10.615-14.792c-6.118-4.365-12.904-7.271-20.363-8.443
				C382.298,60.031,380.356,59.963,379.297,59.865L379.297,59.865z"/>
		</g>
		<g>
			<path fill="#F9F0AF" d="M363.316,90.002c0.787,0.274,1.595,0.534,2.429,0.772c5.483,1.576,10.948,1.958,16.233,2.326
				c0.708,0.05,1.416,0.101,2.123,0.151c0.818,0.061,1.638,0.116,2.457,0.173c4.726,0.322,9.19,0.627,13.408,1.833
				c1.849,0.529,3.378,1.15,4.664,1.902c-4.125,2.275-9.081,3.463-15.557,3.725c-5.471-0.032-9.997-1.015-14.666-3.182
				C369.977,95.651,366.31,93.107,363.316,90.002 M353.584,78.884c-0.614,0-0.957,0.502-0.927,1.443
				c0.093,2.867,1.219,5.405,2.755,7.749c4.206,6.405,9.945,10.942,16.89,14.165c5.111,2.372,10.389,3.622,16.856,3.646
				c5.804-0.225,12.31-1.172,18.216-4.532c1.159-0.66,2.197-1.635,3.079-2.648c1.041-1.202,0.874-2.575-0.304-3.658
				c-2.52-2.313-5.562-3.663-8.811-4.593c-5.513-1.577-11.206-1.768-16.87-2.188c-5.825-0.431-11.673-0.666-17.344-2.297
				c-4.197-1.207-8.052-3.028-11.361-5.925c-0.391-0.343-0.822-0.657-1.283-0.897C354.141,78.971,353.839,78.884,353.584,78.884
				L353.584,78.884z"/>
		</g>
	</g>
	<g>
		<g>
			<path fill="#F9F0AF" d="M433.477,54.535c4.113,0,8.433,0.999,13.572,3.14c0.246,0.132,0.527,0.279,0.835,0.439
				c0.96,0.5,2.156,1.121,3.233,1.81c5.941,3.791,10.884,8.937,14.686,15.293c3.295,5.511,4.387,10.434,3.437,15.494
				c-0.054,0.273-0.107,0.54-0.166,0.795c-1.366-3.054-3.289-5.893-5.753-8.486c-5.203-5.479-11.595-9.044-16.577-11.536
				c-2.333-1.168-4.707-2.316-7.003-3.431c-3.061-1.479-6.225-3.014-9.271-4.581c-3.013-1.548-5.063-3.177-6.458-5.129
				c-0.43-0.602-0.515-0.99-0.521-1.033c0.001-0.002,0.133-0.264,0.754-0.627c1.204-0.705,2.488-1.229,3.706-1.514
				C429.792,54.743,431.6,54.535,433.477,54.535 M433.477,49.535c-2.208,0-4.417,0.245-6.652,0.763
				c-1.771,0.413-3.532,1.146-5.106,2.07c-3.575,2.091-4.175,5.521-1.771,8.883c2.131,2.984,5.059,5.034,8.238,6.668
				c5.392,2.771,10.899,5.321,16.32,8.035c5.557,2.776,10.861,5.947,15.189,10.508c3.363,3.543,5.621,7.677,6.479,12.523
				c0.229,1.29,0.841,1.979,1.679,1.979c0.479,0,1.027-0.224,1.62-0.688c2.814-2.191,4.048-5.284,4.681-8.645
				c1.294-6.88-0.573-13.155-4.06-18.983c-4.111-6.878-9.501-12.611-16.288-16.94c-1.734-1.105-3.603-2.003-4.596-2.549
				C443.755,50.863,438.62,49.535,433.477,49.535L433.477,49.535z"/>
		</g>
		<g>
			<path fill="#F9F0AF" d="M419.966,74.579c0.938,0.933,1.942,1.844,3.021,2.735c4.654,3.857,9.815,6.558,14.807,9.166
				c0.671,0.353,1.342,0.701,2.013,1.058c0.77,0.403,1.538,0.807,2.311,1.207c4.5,2.342,8.75,4.553,12.388,7.561
				c1.788,1.479,3.135,2.901,4.122,4.368c-0.081,0.013-0.154,0.021-0.22,0.029c-0.917,0.097-1.862,0.146-2.81,0.146
				c-4.381,0-8.982-0.998-14.477-3.14c-5.379-2.387-9.419-5.307-13.09-9.453C424.206,83.936,421.542,79.425,419.966,74.579
				 M415.59,60.677c-0.447,0-0.847,0.369-1.139,1.101c-1.135,2.847-1.118,5.806-0.617,8.747c1.374,8.055,5.044,14.938,10.454,21.049
				c3.98,4.5,8.604,7.973,14.911,10.756c4.867,1.904,10.445,3.521,16.397,3.521c1.101,0,2.209-0.056,3.332-0.174
				c1.414-0.149,2.846-0.659,4.14-1.275c1.528-0.729,1.953-2.144,1.265-3.7c-1.473-3.335-3.868-5.951-6.644-8.246
				c-4.715-3.897-10.193-6.512-15.551-9.336c-5.506-2.908-11.117-5.639-15.964-9.65c-3.583-2.97-6.571-6.396-8.569-10.635
				c-0.234-0.504-0.521-0.996-0.871-1.429C416.344,60.918,415.951,60.677,415.59,60.677L415.59,60.677z"/>
		</g>
	</g>
	<g>
		<g>
			<path fill="#F9F0AF" d="M580.954,60.625c3.432,0,6.435,0.772,9.177,2.37c-2.85,0.3-5.697,1.061-8.495,2.271
				c-6.544,2.833-11.771,7.332-15.596,10.937c-1.79,1.686-3.575,3.41-5.301,5.08c-2.285,2.21-4.648,4.493-7.005,6.667
				c-2.3,2.118-4.354,3.379-6.475,3.962c-0.365,0.101-0.614,0.122-0.758,0.122c-0.021,0-0.042,0-0.06-0.001
				c-0.055-0.111-0.125-0.313-0.183-0.618c-0.228-1.265-0.272-2.531-0.136-3.659c0.682-5.479,3.238-10.368,8.283-15.831
				c0.186-0.166,0.394-0.355,0.621-0.563c0.752-0.686,1.687-1.537,2.642-2.269c5.214-3.98,11.296-6.652,18.079-7.941
				C577.585,60.802,579.336,60.625,580.954,60.625 M580.954,55.625c-2.024,0-4.074,0.222-6.139,0.614
				c-7.386,1.401-14.178,4.297-20.18,8.88c-1.533,1.171-2.927,2.522-3.728,3.226c-5.405,5.807-8.859,11.678-9.745,18.793
				c-0.208,1.693-0.126,3.483,0.177,5.164c0.553,3.07,2.487,4.731,5.161,4.731c0.656,0,1.354-0.102,2.09-0.305
				c3.317-0.913,6.066-2.832,8.531-5.104c4.182-3.854,8.203-7.883,12.343-11.781c4.241-3.996,8.745-7.645,14.155-9.986
				c3.01-1.304,6.104-2.008,9.285-2.008c1.266,0,2.546,0.111,3.841,0.341c0.25,0.045,0.48,0.066,0.695,0.066
				c1.413,0,2.021-0.951,1.505-2.556c-1.024-3.188-3.351-5.272-6.104-6.91C589.064,56.539,585.064,55.625,580.954,55.625
				L580.954,55.625z"/>
		</g>
		<g>
			<path fill="#F9F0AF" d="M595.371,75.816c-1.206,4.556-3.775,8.955-8.063,13.816c-3.804,3.93-7.644,6.521-12.437,8.401
				c-4.575,1.793-8.904,2.673-13.231,2.688c0.744-0.377,1.489-0.784,2.239-1.221c4.929-2.874,8.984-6.562,12.906-10.125
				c0.522-0.479,1.048-0.953,1.576-1.43c0.603-0.545,1.202-1.092,1.801-1.639c3.504-3.2,6.813-6.222,10.614-8.438
				C592.434,76.901,593.938,76.226,595.371,75.816 M597.923,70.355c-0.087,0-0.175,0.003-0.265,0.011
				c-3.413,0.221-6.49,1.482-9.406,3.189c-4.952,2.894-9.021,6.875-13.24,10.682c-4.337,3.91-8.552,7.976-13.648,10.946
				c-3.771,2.198-7.755,3.727-12.136,4.115c-0.519,0.046-1.043,0.138-1.534,0.308c-1.241,0.42-1.403,1.241-0.41,2.135
				c2.138,1.919,4.752,2.854,7.504,3.363c2.269,0.418,4.512,0.619,6.732,0.619c5.156,0,10.196-1.082,15.18-3.034
				c5.247-2.057,9.798-5.006,14.287-9.663c3.848-4.351,7.658-9.708,9.313-16.298c0.324-1.294,0.338-2.717,0.213-4.057
				C600.372,71.178,599.375,70.355,597.923,70.355L597.923,70.355z"/>
		</g>
	</g>
	<g>
		<g>
			<path fill="#F9F0AF" d="M236.974,62.496c4.9,0,9.876,0.849,14.791,2.521c5.945,2.026,9.875,5.008,12.367,9.388
				c0.089,0.154,0.174,0.31,0.255,0.462c-2.909-1.36-6.082-2.23-9.488-2.599c-1.47-0.16-2.994-0.238-4.528-0.238
				c-4.512,0-9.215,0.654-15.249,2.13c-2.501,0.607-5.021,1.259-7.458,1.887c-3.223,0.831-6.555,1.688-9.82,2.449
				c-1.841,0.428-3.44,0.636-4.891,0.636c-1.128,0-2.162-0.123-3.168-0.378c-0.625-0.157-0.897-0.348-0.983-0.42
				c-0.007-0.102-0.001-0.371,0.169-0.855c0.45-1.284,1.075-2.48,1.801-3.462c3.486-4.68,8.379-7.838,15.847-10.224
				c0.276-0.061,0.591-0.129,0.935-0.207c1.027-0.232,2.306-0.521,3.536-0.688C233.041,62.631,235.021,62.496,236.974,62.496
				 M236.974,57.496c-2.174,0-4.361,0.146-6.561,0.445c-2.002,0.272-3.971,0.787-5.063,1.009
				c-7.924,2.494-14.103,6.059-18.588,12.08c-1.064,1.433-1.917,3.104-2.51,4.793c-1.349,3.839,0.381,6.792,4.314,7.778
				c1.464,0.37,2.928,0.528,4.387,0.528c2.023,0,4.035-0.304,6.022-0.766c5.798-1.35,11.544-2.938,17.33-4.351
				c4.637-1.132,9.312-1.987,14.064-1.987c1.323,0,2.652,0.065,3.988,0.213c4.772,0.514,9.088,2.182,12.814,5.266
				c0.593,0.493,1.152,0.735,1.641,0.735c0.79,0,1.393-0.636,1.65-1.863c0.713-3.432-0.326-6.533-1.988-9.449
				c-3.401-5.974-8.785-9.491-15.098-11.643C248.02,58.461,242.542,57.496,236.974,57.496L236.974,57.496z"/>
		</g>
		<g>
			<path fill="#F9F0AF" d="M257.132,87.996c2.034,0,3.766,0.196,5.294,0.612c-0.018,0.021-0.035,0.037-0.051,0.057
				c-3.504,3.672-8.212,6.441-14.81,8.715c-3.694,1.085-7.156,1.612-10.58,1.612c-1.701,0-3.399-0.125-5.192-0.385
				c-5.46-0.783-10.208-2.403-14.379-4.917c1.012,0.071,2.048,0.107,3.11,0.107c0.175,0,0.35-0.001,0.529-0.003
				c5.955-0.07,11.546-1.331,16.953-2.55c0.719-0.162,1.438-0.324,2.155-0.482c0.843-0.187,1.686-0.378,2.528-0.569
				c4.845-1.1,9.42-2.138,14.036-2.194C256.861,87.997,256.997,87.996,257.132,87.996 M257.132,82.996
				c-0.156,0-0.312,0.001-0.469,0.003c-6.007,0.076-11.772,1.601-17.58,2.883c-5.972,1.321-11.91,2.843-18.088,2.915
				c-0.157,0.002-0.314,0.003-0.471,0.003c-4.404,0-8.661-0.685-12.707-2.529c-0.495-0.225-1.022-0.412-1.557-0.514
				c-0.193-0.037-0.37-0.055-0.53-0.055c-0.961,0-1.326,0.647-0.947,1.783c0.958,2.854,2.85,5.061,5.096,6.944
				c6.145,5.16,13.267,7.985,21.202,9.127c1.975,0.284,3.93,0.436,5.904,0.436c3.865,0,7.802-0.575,12.1-1.85
				c5.755-1.972,11.995-4.881,16.907-10.025c0.965-1.012,1.712-2.302,2.291-3.583c0.683-1.521,0.103-2.849-1.405-3.578
				C263.799,83.463,260.505,82.996,257.132,82.996L257.132,82.996z"/>
		</g>
	</g>
	<g>
		<g>
			<path fill="#F9F0AF" d="M341.417,80.206c1.099,0,2.171,0.104,3.193,0.311c1.132,0.229,1.728,0.631,1.909,0.933
				c0.205,0.342,0.181,1.035-0.065,1.858c-0.502,1.683-1.231,3.261-2.103,4.563c-4.064,6.04-9.945,10.253-19.05,13.639
				c-0.327,0.087-0.701,0.19-1.113,0.305c-1.253,0.351-2.813,0.782-4.337,1.067c-3.218,0.597-6.499,0.899-9.751,0.899
				c-5.189,0-10.489-0.771-15.755-2.287c-7.434-2.144-12.676-5.748-16.027-11.029c-0.739-1.163-1.294-2.235-1.676-3.254
				c4.179,2.165,8.82,3.41,13.857,3.713c0.949,0.057,1.92,0.085,2.887,0.085c7.74,0,15.007-1.853,20.474-3.466
				c2.96-0.874,5.943-1.798,8.828-2.691c3.852-1.19,7.834-2.426,11.75-3.535C337.066,80.568,339.35,80.206,341.417,80.206
				 M341.417,75.206c-2.825,0-5.612,0.521-8.346,1.3c-6.907,1.956-13.739,4.207-20.627,6.24c-6.235,1.841-12.547,3.262-19.058,3.262
				c-0.86,0-1.722-0.024-2.589-0.076c-5.78-0.347-11.074-2.103-15.74-5.604c-0.707-0.532-1.363-0.792-1.932-0.792
				c-0.997,0-1.723,0.801-1.968,2.344c-0.661,4.173,0.77,7.849,2.94,11.267c4.443,7.002,11.134,10.929,18.864,13.153
				c5.651,1.629,11.374,2.482,17.139,2.482c3.54,0,7.096-0.321,10.663-0.983c2.395-0.447,4.738-1.181,6.039-1.512
				c9.403-3.463,16.642-8.11,21.697-15.624c1.199-1.79,2.127-3.854,2.745-5.922c1.404-4.702-0.852-8.159-5.648-9.124
				C344.195,75.332,342.801,75.206,341.417,75.206L341.417,75.206z"/>
		</g>
		<g>
			<path fill="#F9F0AF" d="M312.448,57.642c1.424,0,2.902,0.072,4.396,0.216c8.371,0.796,15.48,3.232,21.659,7.436
				c-1.707-0.199-3.469-0.298-5.297-0.298c-1.031,0-2.102,0.03-3.181,0.097c-7.055,0.421-13.657,2.245-20.042,4.008
				c-0.865,0.239-1.729,0.479-2.596,0.713c-0.998,0.271-1.995,0.549-2.991,0.826c-5.832,1.622-11.339,3.153-17.01,3.497
				c-0.757,0.047-1.49,0.069-2.178,0.069c-2.414,0-4.532-0.287-6.432-0.877c0.298-0.547,0.608-1.011,0.922-1.371
				c4.128-4.764,9.772-8.464,17.759-11.646C302.701,58.49,307.467,57.642,312.448,57.642 M312.448,52.642
				c-5.403,0-10.803,0.91-16.736,2.98c-6.818,2.707-14.169,6.572-19.791,13.058c-1.104,1.273-1.929,2.869-2.551,4.45
				c-0.735,1.869,0.041,3.435,1.898,4.228c3.197,1.366,6.537,1.848,9.94,1.848c0.824,0,1.651-0.027,2.481-0.078
				c7.23-0.438,14.086-2.607,21.009-4.489c7.119-1.935,14.184-4.11,21.625-4.555c0.965-0.06,1.927-0.088,2.884-0.088
				c4.495,0,8.884,0.672,13.137,2.366c0.611,0.244,1.257,0.438,1.906,0.527c0.183,0.025,0.353,0.038,0.51,0.038
				c1.259,0,1.711-0.811,1.168-2.208c-1.318-3.381-3.724-5.928-6.54-8.07c-7.702-5.859-16.446-8.854-26.07-9.769
				C315.685,52.724,314.066,52.642,312.448,52.642L312.448,52.642z"/>
		</g>
	</g>
</g>
</svg>
