<?xml version="1.0" encoding="utf-8"?>
<!-- Generator: Adobe Illustrator 16.0.0, SVG Export Plug-In . SVG Version: 6.00 Build 0)  -->
<!DOCTYPE svg PUBLIC "-//W3C//DTD SVG 1.1//EN" "http://www.w3.org/Graphics/SVG/1.1/DTD/svg11.dtd">
<svg version="1.1" xmlns="http://www.w3.org/2000/svg" xmlns:xlink="http://www.w3.org/1999/xlink" x="0px" y="0px"
	 width="327.809px" height="373.393px" viewBox="0 0 327.809 373.393" enable-background="new 0 0 327.809 373.393"
	 xml:space="preserve">
<g id="bg-snack">
	<circle fill="#F89406" cx="164.398" cy="212.001" r="147.791"/>
</g>
<g id="text-snack">
	<g>
		<path fill="#704F50" d="M89.426,35.297c1.87-0.611,3.293,0.25,4.271,2.584c1.085,2.637,1.278,5.931,0.583,9.882
			c-0.587,3.367-1.737,6.259-3.453,8.676c2.91,6.446,4.85,9.72,5.822,9.822c0.101,0.803-0.262,1.729-1.088,2.782
			c-0.826,1.052-1.651,1.792-2.474,2.223c-1.025,0.525-2.128,0.371-3.308-0.464c-1.181-0.836-2.3-2.135-3.358-3.899
			c-1.057-1.763-2.145-3.814-3.265-6.15c-1.119-2.337-2.141-4.748-3.064-7.231c-0.923-2.484-1.838-4.856-2.744-7.119
			c-0.906-2.262-1.671-4.192-2.295-5.791c-0.624-1.598-1.203-2.696-1.737-3.292c0.102-0.084,0.247-0.188,0.436-0.314
			c0.187-0.125,0.556-0.337,1.104-0.636c0.549-0.298,1.093-0.532,1.632-0.702c0.54-0.169,1.174-0.269,1.905-0.3
			s1.408,0.07,2.034,0.303c0.625,0.233,1.254,0.695,1.886,1.384c0.633,0.691,1.168,1.604,1.606,2.742
			c0.453,1.167,1.002,2.536,1.648,4.106C85.535,39.023,86.822,36.155,89.426,35.297z M88.783,37.84
			c-0.663,0.247-1.063,1.077-1.202,2.491c-0.139,1.415-0.052,3.076,0.259,4.983c0.311,1.909,0.602,3.516,0.874,4.823
			c0.271,1.307,0.542,2.427,0.812,3.362l0.166,0.347c1.416-2.523,2.05-5.717,1.9-9.583c-0.146-3.193-0.704-5.249-1.676-6.167
			C89.549,37.775,89.171,37.69,88.783,37.84z"/>
		<path fill="#704F50" d="M121.036,40.18l1.496-0.52c0.025,0.466,0.036,1.079,0.031,1.843c-0.006,0.765-0.13,2.162-0.372,4.193
			c-0.244,2.032-0.614,3.888-1.114,5.568c-0.5,1.682-1.361,3.343-2.584,4.987c-1.223,1.645-2.696,2.766-4.418,3.365
			c-1.119,0.388-2.127,0.289-3.024-0.295c-0.898-0.585-1.602-1.417-2.11-2.493c-0.51-1.075-1.002-2.446-1.479-4.108
			c-1.401,2.79-3.349,4.397-5.842,4.824c-1.576,0.242-2.784-0.167-3.628-1.23c-0.842-1.061-1.196-2.395-1.059-4
			c0.135-1.605,0.712-3.042,1.728-4.309c1.682-2.075,3.963-3.358,6.84-3.85c-0.392-1.421-0.774-2.423-1.146-3.006
			c0.11-0.071,0.251-0.155,0.422-0.248c0.171-0.093,0.518-0.239,1.041-0.438c0.524-0.198,1.03-0.349,1.521-0.452
			c0.488-0.102,1.054-0.129,1.698-0.082c0.643,0.048,1.231,0.208,1.767,0.479c0.534,0.272,1.046,0.746,1.536,1.422
			c0.489,0.677,0.867,1.544,1.132,2.603c1.731,6.443,3.175,9.48,4.335,9.11c0.463-0.127,0.897-0.683,1.299-1.67
			c0.736-1.78,1.264-3.647,1.583-5.604c0.318-1.957,0.462-3.471,0.428-4.543L121.036,40.18z M101.639,51.898
			c0.474,1.563,1.313,1.881,2.515,0.955c0.952-0.77,1.786-1.975,2.505-3.612c-0.278-1.19-0.473-2.088-0.581-2.694
			c-0.484,0.167-0.961,0.376-1.435,0.625c-0.472,0.25-1.014,0.59-1.626,1.022c-0.611,0.433-1.05,0.974-1.314,1.625
			C101.438,50.471,101.417,51.164,101.639,51.898z"/>
		<path fill="#704F50" d="M125.156,33.004c-0.532,0.842-1.282,1.371-2.249,1.588c-0.968,0.218-1.873,0.06-2.713-0.472
			s-1.37-1.282-1.587-2.25c-0.218-0.968-0.061-1.872,0.472-2.713c0.532-0.84,1.282-1.371,2.25-1.587
			c0.967-0.218,1.872-0.06,2.713,0.472c0.84,0.533,1.37,1.283,1.587,2.25C125.846,31.259,125.688,32.164,125.156,33.004z
			 M135.854,37.927l1.474,0.209c-0.025,0.039-0.134,0.539-0.327,1.5c-0.195,0.962-0.41,1.97-0.649,3.023
			c-0.238,1.054-0.634,2.283-1.187,3.685c-0.554,1.403-1.164,2.665-1.831,3.781c-0.667,1.117-1.539,2.125-2.616,3.022
			c-1.077,0.898-2.243,1.472-3.498,1.721c-1.418,0.253-2.601-0.08-3.544-0.998c-0.944-0.919-1.62-2.176-2.029-3.773
			s-0.714-3.209-0.915-4.836c-0.202-1.627-0.356-3.149-0.462-4.568c-0.105-1.418-0.24-2.274-0.404-2.565
			c0.18-0.073,0.421-0.168,0.723-0.285c0.301-0.117,0.855-0.242,1.662-0.373c0.806-0.132,1.517-0.145,2.131-0.037
			c0.614,0.108,1.197,0.443,1.751,1.008c0.553,0.564,0.867,1.379,0.943,2.444c0.441,5.9,1.273,8.944,2.495,9.128
			c0.509,0.082,1.107-0.25,1.793-0.993c0.844-0.912,1.639-2.294,2.387-4.152c0.746-1.856,1.291-3.479,1.635-4.868L135.854,37.927z"
			/>
		<path fill="#704F50" d="M156.562,36.735l1.042-0.174c0.456,0.042,0.646,0.277,0.569,0.705c0.004,0.032-0.06,0.442-0.189,1.231
			c-0.131,0.789-0.269,1.644-0.415,2.563c-0.146,0.921-0.38,2.052-0.7,3.396c-0.32,1.343-0.673,2.635-1.055,3.873
			c-0.381,1.238-0.88,2.507-1.496,3.806c-0.616,1.299-1.277,2.426-1.984,3.382c-0.706,0.955-1.551,1.758-2.535,2.409
			c-0.985,0.65-2.037,1.011-3.156,1.083c-0.861,0.072-1.61-0.119-2.244-0.574c-0.635-0.455-1.121-1.129-1.454-2.023
			s-0.596-1.861-0.786-2.902c-0.191-1.04-0.298-2.267-0.325-3.682s-0.029-2.695-0.005-3.842c0.022-1.146,0.051-2.43,0.089-3.854
			c0.038-1.422,0.058-2.521,0.061-3.294c-2.004,0.211-3.607,0.219-4.806,0.026c-1.201-0.193-1.99-0.525-2.369-0.995
			c-0.378-0.468-0.647-1.016-0.803-1.643c-0.156-0.625-0.204-1.288-0.145-1.988c0.061-0.7-0.077-1.368-0.411-2.005
			c0.18-0.118,0.413-0.243,0.705-0.375c0.289-0.132,0.815-0.309,1.579-0.53c0.762-0.221,1.445-0.303,2.048-0.249
			c0.604,0.057,1.156,0.361,1.658,0.912c0.502,0.551,0.774,1.405,0.817,2.559c0.036,0.834,0.77,1.164,2.198,0.991
			c0.504-0.093,1.013-0.155,1.524-0.185c0.512-0.029,1.132,0.032,1.859,0.186c0.727,0.154,1.349,0.425,1.863,0.813
			c0.514,0.39,0.968,1.003,1.358,1.842c0.392,0.839,0.58,1.856,0.563,3.049c-0.055,5.936,0.026,9.535,0.244,10.797
			c0.356,2.405,1.223,2.655,2.603,0.748c0.97-1.309,1.801-3.303,2.491-5.98c0.691-2.677,1.139-5.027,1.346-7.05L156.562,36.735z"/>
		<path fill="#704F50" d="M185.428,37.061l1.353,0.622c-0.035,0.029-0.281,0.478-0.741,1.344c-0.461,0.867-0.955,1.771-1.484,2.712
			c-0.529,0.942-1.259,2.007-2.188,3.194c-0.932,1.187-1.876,2.222-2.833,3.102c-0.958,0.881-2.081,1.598-3.369,2.151
			c-1.288,0.555-2.569,0.771-3.844,0.652c-1.432-0.162-2.47-0.817-3.112-1.967c-0.644-1.15-0.932-2.548-0.868-4.195
			c0.064-1.646,0.231-3.279,0.502-4.896c0.271-1.617,0.556-3.12,0.86-4.511c0.302-1.39,0.417-2.248,0.344-2.574
			c0.193-0.018,0.451-0.042,0.773-0.067c0.321-0.026,0.889,0.012,1.7,0.116c0.81,0.103,1.493,0.294,2.052,0.572
			c0.56,0.279,1.022,0.768,1.391,1.466c0.369,0.699,0.438,1.569,0.208,2.611c-1.259,5.782-1.33,8.935-0.211,9.46
			c0.465,0.224,1.132,0.077,2.001-0.44c1.07-0.632,2.227-1.732,3.472-3.299c1.245-1.566,2.23-2.966,2.955-4.199L185.428,37.061z
			 M176.577,29.292c-0.75,0.655-1.62,0.948-2.609,0.881c-0.988-0.067-1.812-0.476-2.465-1.226c-0.655-0.749-0.947-1.619-0.88-2.609
			c0.066-0.989,0.476-1.811,1.226-2.465c0.75-0.655,1.619-0.948,2.608-0.88c0.989,0.067,1.811,0.476,2.466,1.225
			c0.654,0.75,0.947,1.621,0.881,2.609C177.736,27.816,177.326,28.639,176.577,29.292z"/>
		<path fill="#704F50" d="M202.184,39.527l0.929,0.918c-0.134,0.239-0.31,0.543-0.527,0.915c-0.219,0.372-0.694,1.108-1.429,2.21
			c-0.733,1.101-1.479,2.138-2.241,3.105c-0.763,0.968-1.708,2.021-2.834,3.161c-1.128,1.14-2.243,2.086-3.345,2.841
			s-2.327,1.321-3.68,1.698c-1.352,0.377-2.652,0.422-3.902,0.135c-0.754-0.147-1.345-0.625-1.772-1.434
			c-0.428-0.81-0.669-1.938-0.724-3.386c-0.056-1.448-0.039-2.942,0.05-4.482c0.089-1.539,0.313-3.39,0.674-5.551
			c0.359-2.162,0.698-4.076,1.018-5.742c0.317-1.666,0.709-3.613,1.179-5.839c-0.191-0.03-0.461-0.062-0.811-0.099
			c-0.352-0.037-0.607-0.051-0.771-0.044c-0.696-0.106-1.205-0.166-1.525-0.183l-2.229-0.339l-0.665-0.101l-0.189-0.029l0.081-1.493
			c0.063,0.01,0.145,0.006,0.245-0.011c0.032,0.004,0.242,0.004,0.63-0.002c0.163-0.006,0.357-0.01,0.584-0.008
			c0.226,0.002,0.509,0.004,0.849,0.007c0.34,0.003,0.621,0.006,0.849,0.007c0.094,0.015,0.319,0.024,0.675,0.03
			c0.354,0.004,0.629,0.006,0.824,0.003c0.357-0.01,0.921,0.011,1.689,0.063c0.066-0.022,0.133-0.029,0.196-0.019
			c1.361-6.199,1.988-9.793,1.88-10.78c0.131-0.012,0.294-0.019,0.488-0.023c0.194-0.002,0.57,0.031,1.127,0.099
			c0.555,0.068,1.073,0.171,1.554,0.309c0.48,0.139,0.994,0.378,1.541,0.719c0.547,0.342,0.993,0.757,1.34,1.247
			c0.346,0.489,0.577,1.148,0.695,1.974c0.117,0.827,0.046,1.771-0.211,2.832c-0.118,0.564-0.41,1.944-0.872,4.138
			c0.126,0.02,0.35,0.046,0.668,0.077c0.319,0.033,0.54,0.058,0.667,0.077c0.354,0.022,0.846,0.08,1.479,0.176
			c0.158,0.024,0.381,0.05,0.668,0.077c0.287,0.028,0.494,0.05,0.621,0.07l0.996,0.151l0.854,0.129l-0.128,1.486
			c-0.2,0.035-0.479,0.057-0.837,0.067c-0.293,0.021-0.633,0.017-1.017-0.01c-0.128-0.019-0.328-0.025-0.604-0.019
			c-0.276,0.007-0.496,0.014-0.658,0.021c-0.159-0.024-0.406-0.038-0.746-0.041c-0.339-0.003-0.606-0.003-0.801,0
			c-0.127-0.02-0.376-0.033-0.746-0.041c-0.371-0.008-0.654-0.01-0.848-0.007c-0.508,2.479-1.019,5.216-1.538,8.211
			c-0.843,5.762-1.289,9.01-1.335,9.748c-0.174,2.626,0.186,3.992,1.077,4.094c0.41,0.063,0.919-0.086,1.523-0.448
			c1.033-0.619,2.329-1.813,3.893-3.583c1.563-1.768,2.862-3.399,3.897-4.893L202.184,39.527z"/>
		<path fill="#704F50" d="M239.866,52.611l1.017,0.3c0.433,0.207,0.508,0.495,0.224,0.864c-0.012,0.029-0.219,0.335-0.621,0.915
			c-0.402,0.581-0.818,1.172-1.246,1.776c-0.43,0.604-1.023,1.342-1.781,2.211c-0.758,0.87-1.507,1.673-2.247,2.412
			c-0.741,0.738-1.605,1.462-2.592,2.171c-0.987,0.71-1.956,1.264-2.904,1.662c-0.951,0.397-1.979,0.625-3.086,0.685
			c-1.107,0.06-2.183-0.117-3.223-0.53c-2.854-1.133-3.261-4.185-1.219-9.156c-2.448,1.747-4.824,2.095-7.126,1.043
			c-1.313-0.59-2.103-1.531-2.364-2.822s-0.111-2.71,0.452-4.26c0.563-1.549,1.22-3.052,1.97-4.51
			c0.75-1.457,1.481-2.802,2.194-4.033c0.712-1.231,1.082-2.014,1.112-2.347c0.189,0.042,0.441,0.099,0.758,0.172
			c0.314,0.074,0.843,0.284,1.584,0.628c0.74,0.346,1.332,0.735,1.78,1.171c0.445,0.435,0.739,1.042,0.878,1.82
			s-0.062,1.628-0.599,2.55c-2.934,5.134-4.17,8.12-3.71,8.956c0.286,0.492,1.101,0.437,2.44-0.167
			c1.3-0.586,2.493-1.661,3.579-3.227c1.086-1.565,1.847-2.984,2.282-4.256l0.654-1.909c0.13,0.018,0.291,0.047,0.481,0.088
			c0.19,0.042,0.548,0.159,1.074,0.35s1.009,0.409,1.445,0.651s0.892,0.595,1.362,1.057c0.471,0.463,0.813,0.967,1.024,1.516
			s0.289,1.243,0.232,2.08c-0.058,0.838-0.331,1.745-0.82,2.72c-0.38,0.779-0.926,1.853-1.64,3.221
			c-1.732,3.408-2.559,5.404-2.479,5.985c0.125,0.636,0.992,0.532,2.601-0.31c1.441-0.77,2.872-1.949,4.293-3.536
			c1.422-1.586,2.476-2.984,3.161-4.192L239.866,52.611z"/>
		<path fill="#704F50" d="M252.379,57.557c1.405,1.029,1.462,2.521,0.169,4.474c-1.445,2.163-3.807,3.968-7.084,5.414
			c-2.507,1.105-4.939,1.646-7.301,1.625c-4.471,7.399-6.465,11.523-5.981,12.373c-1.641,1.653-3.549,1.937-5.725,0.85
			c-0.913-0.466-1.345-1.388-1.298-2.768c0.046-1.38,0.478-2.995,1.294-4.845c0.817-1.852,1.831-3.877,3.041-6.077
			c1.21-2.201,2.528-4.367,3.958-6.502c1.43-2.135,2.773-4.197,4.033-6.188c1.26-1.991,2.33-3.674,3.216-5.05
			c0.883-1.376,1.403-2.404,1.559-3.085c0.127,0.034,0.283,0.083,0.467,0.147c0.184,0.065,0.524,0.224,1.023,0.48
			c0.496,0.255,0.947,0.531,1.352,0.826c0.403,0.294,0.804,0.697,1.199,1.207c0.394,0.51,0.67,1.053,0.828,1.632
			c0.155,0.579,0.146,1.276-0.029,2.093c-0.175,0.816-0.567,1.678-1.175,2.584c-0.077,0.141-0.303,0.5-0.676,1.08
			c-0.373,0.58-0.675,1.044-0.902,1.394C247.81,56.706,250.486,56.151,252.379,57.557z M239.49,66.953l-0.019-0.065l-0.046,0.084
			c2.571-0.229,5.202-1.428,7.894-3.6c2.216-1.774,3.318-3.213,3.304-4.315c0.026-0.314-0.092-0.562-0.357-0.744
			c-0.726-0.473-1.987,0.012-3.781,1.452c-1.798,1.441-3.416,3.006-4.856,4.696L239.49,66.953z"/>
	</g>
</g>
<g id="plate-snack">
	<circle opacity="0.5" fill="#231F20" cx="159.382" cy="218.985" r="124.937"/>
	
		<image overflow="visible" width="935" height="943" xlink:href="snack1.png"  transform="matrix(0.2794 0 0 0.2794 35.4834 80.0571)">
	</image>
</g>
<g id="hover-snack">
	<rect fill="none" width="327.809" height="373.393"/>
</g>
</svg>
