<?xml version="1.0" encoding="utf-8"?>
<!-- Generator: Adobe Illustrator 16.0.0, SVG Export Plug-In . SVG Version: 6.00 Build 0)  -->
<!DOCTYPE svg PUBLIC "-//W3C//DTD SVG 1.1//EN" "http://www.w3.org/Graphics/SVG/1.1/DTD/svg11.dtd">
<svg version="1.1" xmlns="http://www.w3.org/2000/svg" xmlns:xlink="http://www.w3.org/1999/xlink" x="0px" y="0px"
	 width="327.809px" height="373.393px" viewBox="0 0 327.809 373.393" enable-background="new 0 0 327.809 373.393"
	 xml:space="preserve">
<g id="bg-sweet">
	<circle fill="#F62459" cx="163.741" cy="211.109" r="147.651"/>
</g>
<g id="text-sweet">
	<g>
		<path fill="#704F50" d="M52.683,89.792c1.336,1.019,2.095,2.23,2.278,3.636c0.185,1.406-0.083,2.807-0.8,4.202
			c-0.719,1.394-1.535,2.712-2.448,3.954c-0.915,1.242-1.812,2.395-2.693,3.458c-0.881,1.064-1.366,1.764-1.455,2.099
			c-0.204-0.098-0.47-0.219-0.797-0.364c-0.328-0.146-0.858-0.47-1.591-0.975c-0.734-0.505-1.309-1.037-1.727-1.594
			c-0.418-0.557-0.642-1.262-0.672-2.117c-0.029-0.855,0.313-1.732,1.029-2.633c3.27-4.064,4.853-6.599,4.749-7.603
			c-0.05-0.458-0.397-0.766-1.045-0.926c-0.914-0.23-2.047-0.261-3.4-0.092c-1.351,0.17-2.65,0.386-3.898,0.647
			s-2.575,0.484-3.98,0.668c-1.407,0.184-2.713,0.113-3.919-0.209c-1.206-0.323-2.338-0.913-3.402-1.772
			c-1.063-0.858-1.971-2.275-2.728-4.252c-0.756-1.976-1.313-4.447-1.667-7.414c-0.074-1.226-0.103-2.059-0.084-2.5
			c0.121-2.38,0.871-3.974,2.25-4.782c2.437-1.487,4.689-0.754,6.756,2.197c0.822,1.225,1.875,2.584,3.163,4.077
			c1.288,1.494,2.245,2.519,2.871,3.074l-1.265,1.427c-2.252-2.369-4.083-4.324-5.495-5.865c-0.258-0.27-0.432-0.237-0.521,0.097
			c-0.092,0.292-0.106,1.149-0.043,2.573c0.134,2.233,0.51,4.079,1.124,5.535c0.615,1.458,1.402,2.486,2.361,3.088
			s2.011,1.006,3.155,1.211c1.144,0.206,2.367,0.264,3.669,0.174c1.302-0.089,2.548-0.175,3.741-0.258
			c1.191-0.083,2.382-0.044,3.567,0.115S51.922,89.201,52.683,89.792z"/>
		<path fill="#704F50" d="M71.739,58.016l0.896-0.376c0.035,0.091,0.08,0.195,0.135,0.31c0.056,0.116,0.152,0.379,0.288,0.788
			c0.137,0.41,0.214,0.798,0.235,1.163c0.02,0.366,0.014,0.833-0.02,1.403c-0.033,0.57-0.187,1.079-0.461,1.525
			c-0.274,0.448-0.637,0.947-1.086,1.499c-0.451,0.551-1.088,1.008-1.917,1.368c0.72,1.215,1.257,2.281,1.609,3.195
			c0.477,1.214,0.781,2.291,0.911,3.229c0.169,0.986,0.208,1.959,0.115,2.919c-0.016,0.616-0.121,1.245-0.314,1.887
			c-0.276,1.031-0.772,2.063-1.489,3.096c-0.557,0.74-1.239,1.18-2.045,1.323c-0.807,0.143-1.669,0.01-2.589-0.399
			c-0.919-0.407-1.807-0.912-2.663-1.513c-0.857-0.6-1.781-1.355-2.773-2.267c1.367,4.341,0.713,7.913-1.959,10.718
			c-0.935,1.012-2.022,1.375-3.261,1.09c-1.24-0.284-2.479-1.032-3.717-2.242c-1.238-1.21-2.435-2.504-3.592-3.883
			c-1.155-1.378-2.304-2.723-3.444-4.035c-1.14-1.311-2.034-2.14-2.685-2.49c0.052-0.083,0.13-0.208,0.234-0.374
			c0.105-0.166,0.342-0.451,0.71-0.857c0.37-0.404,0.747-0.765,1.129-1.081c0.382-0.315,0.862-0.599,1.438-0.852
			c0.576-0.253,1.155-0.379,1.738-0.378c0.584,0.001,1.239,0.186,1.963,0.553c0.724,0.367,1.447,0.938,2.165,1.713
			c0.596,0.675,1.431,1.614,2.504,2.819c2.36,2.718,3.81,4.136,4.35,4.254c0.582,0.122,0.783-0.707,0.603-2.487
			c-0.222-2.026-0.681-3.899-1.374-5.619c-1.427-1.438-2.282-2.279-2.565-2.528c0.084-0.189,0.205-0.42,0.364-0.691
			c0.158-0.271,0.497-0.701,1.017-1.29c0.519-0.588,1.069-1.031,1.648-1.328c0.58-0.296,1.331-0.373,2.253-0.229
			c0.922,0.145,1.86,0.648,2.812,1.511c2.921,2.619,5.031,4.276,6.33,4.974c0.094-0.519,0.1-1.169,0.022-1.947
			c-0.055-0.799-0.236-1.676-0.54-2.631c-0.379-1.093-0.794-2.036-1.247-2.83c-0.02-0.023-0.054-0.076-0.101-0.158
			c-0.047-0.082-0.069-0.144-0.064-0.188c-0.835,0.207-1.409,0.338-1.724,0.396c-0.652,0.136-1.253,0.188-1.8,0.157
			c-0.746-0.027-1.402-0.19-1.969-0.488c-0.336-0.164-0.667-0.394-0.99-0.69c-0.242-0.243-0.474-0.575-0.698-0.993
			c-0.341-0.804-0.385-1.612-0.13-2.425c0.195-0.884,0.657-1.567,1.387-2.048c0.359-0.295,0.773-0.475,1.243-0.541
			c0.386-0.117,0.838-0.127,1.358-0.034c0.364,0.102,0.759,0.239,1.184,0.411c0.23,0.133,0.551,0.352,0.961,0.655
			c0.308,0.228,0.572,0.474,0.789,0.737c0.103,0.077,0.233,0.21,0.39,0.401l0.296,0.359c0.554,0.671,1.059,1.358,1.521,2.064
			c0.115-0.055,0.273-0.144,0.471-0.269c0.2-0.123,0.54-0.393,1.02-0.81c0.481-0.416,0.861-0.859,1.137-1.329
			c0.277-0.469,0.44-1.086,0.493-1.853C72.291,59.612,72.124,58.824,71.739,58.016z M65.405,63.717l-0.236-0.287
			c-0.217-0.263-0.396-0.456-0.539-0.581c-0.451-0.352-0.814-0.574-1.092-0.667c-0.408-0.105-0.743-0.071-1.001,0.102
			c-0.327,0.189-0.555,0.497-0.684,0.926c-0.146,0.361-0.149,0.746-0.012,1.155c0.165,0.347,0.413,0.624,0.746,0.832
			c0.313,0.186,0.751,0.326,1.314,0.424c0.659,0.02,1.156,0.012,1.489-0.022l1.175-0.184c-0.02-0.024-0.144-0.212-0.375-0.565
			s-0.415-0.613-0.552-0.781C65.621,64.003,65.544,63.885,65.405,63.717z"/>
		<path fill="#704F50" d="M87.211,51.268l1.181,0.154c0.288,5.447-0.583,10.269-2.608,14.469c-1.716,3.576-3.739,5.652-6.072,6.23
			c-2.445,0.575-4.512-0.804-6.201-4.132c-0.23-0.44-0.442-0.91-0.635-1.41c-0.581-1.498-0.856-2.927-0.827-4.286
			c0.029-1.358,0.274-2.512,0.733-3.461c0.459-0.949,1.052-1.797,1.776-2.544c0.727-0.747,1.426-1.315,2.097-1.704
			c0.671-0.388,1.272-0.652,1.804-0.793c0.696-0.167,1.371-0.131,2.023,0.107c0.653,0.24,1.23,0.715,1.734,1.426
			c0.502,0.711,0.743,1.707,0.72,2.989c-0.013,2.075-1.303,3.835-3.873,5.281c1.298,2.804,2.601,3.667,3.904,2.586
			c1.421-1.187,2.614-4.156,3.58-8.911C87.092,54.513,87.312,52.512,87.211,51.268z M79.069,56.414
			c-0.159,0.097-0.305,0.186-0.438,0.266s-0.293,0.278-0.484,0.592c-0.189,0.315-0.311,0.67-0.363,1.063
			c-0.052,0.394-0.016,0.961,0.106,1.702c0.123,0.742,0.367,1.565,0.732,2.467c2.045-1.055,2.986-2.495,2.825-4.319
			c-0.04-0.303-0.132-0.636-0.28-1c-0.148-0.364-0.416-0.655-0.801-0.875C79.979,56.09,79.547,56.125,79.069,56.414z"/>
		<path fill="#704F50" d="M102.073,44.518l1.161,0.271c-0.25,5.448-1.589,10.162-4.018,14.142c-2.059,3.39-4.277,5.258-6.655,5.604
			c-2.49,0.331-4.41-1.244-5.763-4.722c-0.186-0.461-0.351-0.949-0.495-1.466c-0.43-1.548-0.564-2.996-0.402-4.346
			c0.164-1.349,0.52-2.473,1.07-3.373c0.55-0.899,1.222-1.685,2.019-2.357c0.796-0.672,1.547-1.169,2.253-1.49
			c0.706-0.32,1.331-0.524,1.873-0.612c0.71-0.098,1.377,0.004,2.003,0.306c0.626,0.303,1.154,0.833,1.585,1.589
			c0.431,0.757,0.572,1.773,0.424,3.046c-0.218,2.063-1.676,3.688-4.373,4.875c1.015,2.917,2.227,3.904,3.63,2.957
			c1.53-1.041,3.009-3.879,4.438-8.516C101.634,47.737,102.051,45.766,102.073,44.518z M93.464,48.839
			c-0.169,0.08-0.323,0.154-0.462,0.221c-0.14,0.067-0.32,0.248-0.54,0.542s-0.375,0.636-0.466,1.021
			c-0.09,0.388-0.111,0.955-0.061,1.705c0.049,0.75,0.211,1.593,0.485,2.527c2.139-0.85,3.216-2.19,3.235-4.021
			c-0.009-0.305-0.068-0.646-0.18-1.023c-0.111-0.376-0.349-0.693-0.711-0.949C94.401,48.607,93.968,48.598,93.464,48.839z"/>
		<path fill="#704F50" d="M117.295,38.409l1.219,0.343c0,0.265-0.007,0.606-0.018,1.023c-0.01,0.418-0.069,1.266-0.174,2.544
			c-0.105,1.28-0.253,2.509-0.445,3.688c-0.192,1.179-0.499,2.517-0.92,4.012c-0.422,1.495-0.923,2.822-1.502,3.98
			c-0.581,1.158-1.356,2.213-2.326,3.167c-0.969,0.955-2.053,1.604-3.247,1.947c-0.709,0.229-1.435,0.101-2.176-0.385
			c-0.743-0.486-1.478-1.33-2.204-2.533c-0.727-1.202-1.414-2.478-2.062-3.826c-0.647-1.348-1.326-3.023-2.034-5.026
			c-0.709-2.003-1.32-3.786-1.833-5.35c-0.513-1.562-1.094-3.398-1.742-5.507c-0.174,0.064-0.418,0.164-0.733,0.297
			c-0.315,0.134-0.539,0.241-0.674,0.324c-0.64,0.237-1.101,0.424-1.38,0.56l-2.052,0.759l-0.61,0.227l-0.174,0.064l-0.632-1.305
			c0.059-0.021,0.126-0.063,0.203-0.124c0.03-0.011,0.208-0.11,0.536-0.297c0.134-0.083,0.297-0.177,0.49-0.281
			c0.194-0.104,0.435-0.235,0.724-0.392c0.289-0.157,0.529-0.287,0.723-0.393c0.087-0.032,0.283-0.129,0.586-0.292
			c0.304-0.162,0.539-0.29,0.702-0.383c0.298-0.176,0.787-0.423,1.462-0.74c0.047-0.05,0.1-0.086,0.158-0.108
			c-1.755-5.899-2.91-9.242-3.465-10.028c0.105-0.072,0.24-0.155,0.404-0.25c0.164-0.094,0.498-0.241,1.002-0.444
			c0.503-0.203,0.991-0.358,1.463-0.468c0.472-0.108,1.021-0.146,1.645-0.113c0.624,0.034,1.199,0.177,1.722,0.429
			c0.523,0.253,1.03,0.703,1.516,1.349c0.489,0.647,0.872,1.48,1.15,2.501c0.165,0.535,0.566,1.842,1.204,3.92
			c0.115-0.043,0.317-0.125,0.602-0.248c0.285-0.121,0.486-0.205,0.603-0.248c0.31-0.146,0.754-0.329,1.337-0.544
			c0.145-0.053,0.346-0.136,0.603-0.248c0.256-0.111,0.442-0.188,0.559-0.232l0.916-0.339l0.786-0.291l0.588,1.32
			c-0.152,0.123-0.379,0.272-0.676,0.449c-0.241,0.155-0.53,0.313-0.869,0.47c-0.116,0.043-0.29,0.133-0.52,0.268
			c-0.231,0.136-0.414,0.245-0.549,0.328c-0.146,0.054-0.363,0.159-0.652,0.315s-0.516,0.283-0.68,0.376
			c-0.117,0.043-0.334,0.149-0.652,0.316c-0.319,0.167-0.56,0.299-0.723,0.392c0.735,2.341,1.584,4.904,2.55,7.689
			c1.989,5.283,3.136,8.249,3.442,8.896c1.086,2.31,2.032,3.299,2.835,2.968c0.378-0.14,0.74-0.504,1.083-1.096
			c0.585-1.01,1.125-2.631,1.621-4.866c0.495-2.234,0.832-4.228,1.01-5.98L117.295,38.409z"/>
		<path fill="#704F50" d="M134.029,35.413l1.083,0.495c-1.326,5.29-3.572,9.646-6.742,13.064c-2.69,2.915-5.234,4.306-7.634,4.174
			c-2.505-0.169-4.077-2.094-4.714-5.771c-0.09-0.488-0.155-1-0.192-1.535c-0.115-1.602,0.041-3.048,0.468-4.339
			c0.427-1.29,0.999-2.322,1.718-3.094c0.716-0.772,1.532-1.409,2.445-1.911c0.913-0.5,1.748-0.838,2.504-1.013
			c0.754-0.174,1.407-0.25,1.957-0.229c0.714,0.045,1.349,0.277,1.902,0.697c0.553,0.421,0.966,1.046,1.238,1.872
			c0.271,0.827,0.209,1.851-0.188,3.069c-0.623,1.979-2.373,3.283-5.252,3.911c0.417,3.062,1.409,4.268,2.972,3.618
			c1.707-0.717,3.72-3.205,6.039-7.467C132.96,38.48,133.759,36.631,134.029,35.413z M124.733,37.94
			c-0.181,0.045-0.347,0.087-0.497,0.125c-0.151,0.038-0.362,0.181-0.636,0.424c-0.275,0.246-0.494,0.549-0.659,0.91
			c-0.165,0.362-0.298,0.914-0.398,1.659c-0.1,0.745-0.11,1.603-0.025,2.573c2.264-0.409,3.586-1.509,3.968-3.301
			c0.052-0.301,0.06-0.646,0.026-1.039c-0.035-0.39-0.204-0.747-0.51-1.071C125.698,37.898,125.275,37.805,124.733,37.94z"/>
		<path fill="#704F50" d="M151.468,32.688l1.033,0.322c-0.975,2.835-1.669,4.767-2.085,5.798c-0.333,0.956-0.705,1.762-1.113,2.414
			c-0.359,0.553-0.662,0.957-0.908,1.211c-0.026,0.036-0.075,0.081-0.145,0.139c-0.07,0.057-0.119,0.104-0.145,0.138
			c-0.027,0.035-0.084,0.075-0.171,0.118c-0.088,0.044-0.146,0.084-0.172,0.119c-0.03,0.005-0.103,0.046-0.216,0.125l-0.138,0.02
			l-0.04,0.053l-0.184,0.026l-0.046,0.007l-0.047,0.006l-0.046,0.006l-0.138,0.02c-0.215,0.031-0.409-0.004-0.58-0.105
			c-0.228-0.061-0.403-0.192-0.526-0.395c-0.109-0.109-0.282-0.43-0.513-0.961c-0.123-0.421-0.239-1.015-0.349-1.783
			c-0.08-0.771-0.163-1.904-0.251-3.395c-0.044-0.746-0.09-1.287-0.138-1.625c-0.096-0.675-0.178-1.133-0.244-1.375
			c-0.047-0.118-0.139-0.199-0.269-0.244c-0.101-0.048-0.217,0.016-0.348,0.191l-0.238,0.315c-0.176,0.308-0.338,0.706-0.487,1.197
			c-0.114,0.299-0.254,0.741-0.421,1.329c-0.29,1.264-0.468,2.104-0.533,2.521c-0.232,1.224-0.424,2.521-0.572,3.889l-0.198,1.579
			c-0.271,2.483-1.433,3.901-3.479,4.257c-1.256,0.21-2.239-0.143-2.948-1.059c-0.711-0.917-1.139-2.157-1.283-3.718
			c-0.146-1.562-0.247-3.262-0.306-5.103c-0.061-1.841-0.086-3.56-0.08-5.159c0.006-1.599-0.19-2.917-0.589-3.957
			c0.087-0.043,0.221-0.094,0.402-0.151c0.179-0.057,0.512-0.136,0.999-0.237c0.486-0.1,0.958-0.145,1.415-0.131
			c0.456,0.013,0.966,0.128,1.53,0.345c0.563,0.217,1.067,0.552,1.506,1.006c0.441,0.454,0.828,1.128,1.159,2.02
			c0.33,0.893,0.552,1.958,0.667,3.194l0.034,0.231c1.2-2.992,2.419-4.56,3.651-4.705c0.863-0.092,1.452,0.521,1.766,1.839
			c0.313,1.318,0.429,2.563,0.346,3.734c0.035,0.246,0.052,0.588,0.052,1.025l0.039,0.277c-0.009,0.377,0.013,0.97,0.066,1.777
			c0.101,0.706,0.187,1.195,0.256,1.467c0.097,0.237,0.165,0.383,0.204,0.44l0.053,0.04l0.053,0.04l0.046-0.007l0.046-0.007
			l0.132-0.066l0.093-0.012l0.045-0.006c-0.004-0.031,0.024-0.051,0.086-0.06c0.026-0.035,0.054-0.056,0.085-0.06
			c0.057-0.039,0.101-0.062,0.132-0.066l0.079-0.104c0.057-0.04,0.099-0.076,0.125-0.112c0.083-0.074,0.322-0.375,0.716-0.902
			c0.435-0.688,0.798-1.43,1.092-2.223L151.468,32.688z"/>
		<path fill="#704F50" d="M186.146,33.441l0.978,0.805c-0.109,0.243-0.252,0.552-0.431,0.929c-0.179,0.378-0.573,1.13-1.185,2.258
			c-0.612,1.129-1.244,2.194-1.894,3.195c-0.653,1.002-1.473,2.102-2.462,3.3c-0.989,1.199-1.982,2.211-2.979,3.037
			c-0.998,0.825-2.133,1.479-3.405,1.96c-1.271,0.483-2.525,0.64-3.756,0.473c-0.742-0.076-1.354-0.486-1.838-1.23
			s-0.815-1.813-0.994-3.206c-0.181-1.394-0.295-2.838-0.345-4.333c-0.049-1.494,0.005-3.301,0.165-5.42
			c0.16-2.118,0.319-3.996,0.481-5.634c0.16-1.637,0.368-3.55,0.626-5.742c-0.186-0.012-0.449-0.02-0.79-0.024
			c-0.343-0.005-0.592,0.003-0.747,0.024c-0.682-0.042-1.179-0.056-1.489-0.044l-2.184-0.131l-0.649-0.04l-0.186-0.011l-0.053-1.448
			c0.062,0.003,0.141-0.007,0.235-0.032c0.031,0.002,0.234-0.017,0.608-0.057c0.157-0.021,0.345-0.041,0.563-0.06
			c0.218-0.017,0.491-0.04,0.82-0.066c0.327-0.026,0.601-0.049,0.819-0.067c0.093,0.005,0.31-0.004,0.654-0.031
			c0.343-0.025,0.608-0.048,0.796-0.068c0.345-0.041,0.891-0.069,1.638-0.087c0.063-0.026,0.126-0.039,0.188-0.035
			c0.773-6.106,1.064-9.631,0.873-10.575c0.125-0.023,0.283-0.044,0.471-0.065c0.187-0.019,0.552-0.021,1.096-0.004
			c0.542,0.018,1.051,0.072,1.527,0.162c0.477,0.093,0.992,0.278,1.552,0.561c0.557,0.283,1.024,0.645,1.402,1.087
			c0.377,0.442,0.657,1.058,0.844,1.846c0.185,0.788,0.199,1.706,0.043,2.752c-0.064,0.555-0.225,1.914-0.479,4.073
			c0.122,0.007,0.34,0.013,0.651,0.016c0.31,0.003,0.526,0.008,0.65,0.016c0.343-0.01,0.823,0.003,1.442,0.041
			c0.155,0.009,0.373,0.015,0.651,0.016c0.28,0.002,0.482,0.006,0.605,0.014l0.976,0.059l0.836,0.051l0.006,1.445
			c-0.189,0.051-0.456,0.097-0.8,0.139c-0.283,0.045-0.611,0.071-0.984,0.079c-0.124-0.007-0.318,0.005-0.584,0.035
			c-0.267,0.03-0.478,0.057-0.635,0.078c-0.155-0.01-0.396,0-0.725,0.026c-0.327,0.027-0.585,0.05-0.773,0.07
			c-0.123-0.008-0.364,0.001-0.723,0.026c-0.36,0.025-0.633,0.048-0.82,0.067c-0.272,2.438-0.527,5.126-0.768,8.063
			c-0.311,5.637-0.455,8.813-0.437,9.529c0.063,2.553,0.529,3.839,1.397,3.86c0.402,0.025,0.881-0.164,1.434-0.565
			c0.942-0.689,2.09-1.956,3.446-3.8c1.353-1.844,2.466-3.533,3.335-5.065L186.146,33.441z"/>
		<path fill="#704F50" d="M209.714,39.948l0.812,0.447c-0.152,0.286-0.376,0.652-0.671,1.1c-0.297,0.447-0.862,1.227-1.702,2.34
			c-0.841,1.112-1.649,2.065-2.425,2.859c-0.776,0.793-1.644,1.45-2.603,1.969c-0.957,0.52-1.802,0.627-2.531,0.322
			c-0.847-0.359-1.369-1.381-1.567-3.066c-0.201-1.685-0.196-3.439,0.012-5.265c0.206-1.825,0.26-3.507,0.157-5.046
			s-0.489-2.375-1.158-2.51c-0.547-0.11-1.095,0.414-1.643,1.569c-0.548,1.155-1.102,2.571-1.658,4.247
			c-0.559,1.676-1.191,3.336-1.9,4.981s-1.655,2.965-2.836,3.963c-1.18,0.997-2.513,1.33-3.996,1.001
			c-0.979-0.165-1.647-0.892-2.006-2.182c-0.358-1.29-0.43-2.909-0.212-4.859c0.217-1.95,0.563-4.117,1.043-6.505
			c0.479-2.387,1.067-4.775,1.77-7.166c0.7-2.39,1.343-4.689,1.929-6.897c0.585-2.207,1.085-4.076,1.504-5.605
			c0.417-1.53,0.599-2.632,0.545-3.308c0.224-0.018,0.517-0.015,0.875,0.01c0.358,0.024,0.965,0.162,1.815,0.411
			c0.852,0.25,1.565,0.599,2.14,1.046s1.016,1.169,1.322,2.164c0.306,0.995,0.258,2.179-0.144,3.554
			c-1.871,6.647-3.324,12.24-4.36,16.778c2.247-5.212,4.48-7.596,6.7-7.15c1.187,0.238,1.939,1.251,2.262,3.04
			c0.321,1.789,0.341,3.698,0.061,5.73c-0.282,2.031-0.454,3.959-0.519,5.78c-0.064,1.822,0.177,2.867,0.724,3.135
			c0.662,0.322,1.68-0.091,3.049-1.239c1.368-1.149,2.579-2.377,3.633-3.685L209.714,39.948z"/>
		<path fill="#704F50" d="M226.985,45.436l0.645,1.003c-3.977,3.733-8.222,6.182-12.737,7.342c-3.839,0.998-6.73,0.792-8.678-0.618
			c-2.017-1.497-2.298-3.966-0.844-7.403c0.187-0.46,0.41-0.925,0.667-1.396c0.769-1.41,1.683-2.542,2.741-3.396
			c1.057-0.854,2.096-1.413,3.117-1.675c1.02-0.261,2.051-0.355,3.09-0.283s1.924,0.24,2.654,0.501
			c0.729,0.263,1.32,0.552,1.77,0.867c0.577,0.423,0.984,0.962,1.224,1.615c0.237,0.653,0.247,1.401,0.029,2.244
			c-0.22,0.842-0.825,1.669-1.818,2.48c-1.595,1.328-3.772,1.478-6.534,0.448c-1.305,2.801-1.123,4.352,0.544,4.651
			c1.823,0.32,4.862-0.686,9.117-3.015C224.428,47.438,226.1,46.316,226.985,45.436z M217.8,42.536
			c-0.176-0.059-0.338-0.114-0.485-0.164c-0.146-0.05-0.402-0.045-0.765,0.012c-0.363,0.059-0.713,0.194-1.046,0.409
			c-0.335,0.214-0.745,0.608-1.232,1.18c-0.488,0.572-0.959,1.29-1.413,2.151c2.126,0.88,3.832,0.67,5.122-0.63
			c0.206-0.225,0.4-0.511,0.585-0.858c0.182-0.348,0.231-0.74,0.15-1.177C218.634,43.022,218.328,42.714,217.8,42.536z"/>
		<path fill="#704F50" d="M259.755,63.946l0.558,1.25c-3.322,2.682-6.471,4.097-9.442,4.245c-2.288,0.085-4.439-0.542-6.456-1.883
			c-0.956-0.639-1.491-1.425-1.604-2.358c-0.114-0.934,0.103-1.86,0.648-2.781c0.546-0.919,1.209-1.888,1.992-2.902
			c-1.161,0.682-2.567,1.029-4.216,1.042c-1.65,0.014-3.001-0.49-4.053-1.512c-1.106-1.053-1.496-2.221-1.166-3.504
			c0.328-1.284,1.155-2.344,2.48-3.181s2.765-1.227,4.319-1.17c2.606,0.104,4.917,1.132,6.933,3.085
			c1.484-1.896,3.145-4.221,4.977-6.975c1.832-2.755,3.214-4.918,4.148-6.492c0.934-1.573,1.561-2.663,1.883-3.265
			c0.105,0.063,0.243,0.136,0.412,0.217c0.167,0.082,0.479,0.284,0.937,0.61c0.456,0.324,0.861,0.673,1.218,1.047
			c0.355,0.373,0.703,0.85,1.045,1.431c0.34,0.581,0.558,1.17,0.654,1.768c0.096,0.597,0.021,1.302-0.225,2.111
			c-0.246,0.81-0.684,1.624-1.313,2.44c-0.507,0.673-1.395,1.805-2.663,3.397c-5.298,6.559-8.386,10.912-9.262,13.061
			c-0.79,1.876-0.458,2.776,0.994,2.699c1.34-0.07,2.604-0.303,3.795-0.697c1.188-0.394,2.054-0.773,2.596-1.138L259.755,63.946z
			 M241.506,55.771c-0.683,0.966-0.628,1.666,0.162,2.098c0.938,0.485,2.272,0.393,4.004-0.275c0.901-0.367,1.759-0.868,2.57-1.505
			C245.05,54.051,242.806,53.945,241.506,55.771z"/>
		<path fill="#704F50" d="M274.352,75.285l0.276,1.159c-4.985,2.211-9.802,3.118-14.447,2.722c-3.953-0.327-6.615-1.477-7.987-3.45
			c-1.407-2.08-0.856-4.502,1.65-7.266c0.329-0.373,0.692-0.738,1.091-1.097c1.192-1.075,2.429-1.843,3.71-2.3
			c1.279-0.458,2.444-0.64,3.494-0.549c1.05,0.09,2.054,0.342,3.011,0.753s1.737,0.862,2.34,1.351
			c0.602,0.489,1.063,0.956,1.384,1.403c0.404,0.59,0.611,1.234,0.621,1.929c0.008,0.695-0.229,1.404-0.714,2.127
			c-0.485,0.723-1.331,1.303-2.535,1.74c-1.943,0.728-4.049,0.148-6.315-1.735c-2.157,2.212-2.498,3.736-1.023,4.569
			c1.613,0.904,4.814,0.96,9.601,0.167C271.275,76.33,273.226,75.823,274.352,75.285z M266.641,69.512
			c-0.146-0.114-0.282-0.219-0.404-0.314c-0.123-0.096-0.364-0.175-0.727-0.241c-0.361-0.065-0.736-0.052-1.122,0.04
			c-0.387,0.092-0.904,0.328-1.554,0.707c-0.648,0.379-1.33,0.9-2.044,1.563c1.716,1.533,3.396,1.899,5.044,1.098
			c0.269-0.145,0.547-0.35,0.835-0.618c0.286-0.268,0.463-0.621,0.531-1.061C267.267,70.247,267.08,69.855,266.641,69.512z"/>
		<path fill="#704F50" d="M292.463,92.479l1.076,1.096c-0.396,0.217-0.932,0.479-1.604,0.792c-0.671,0.312-1.947,0.782-3.828,1.413
			c-1.882,0.63-3.662,1.074-5.342,1.333c-1.681,0.259-3.495,0.192-5.442-0.197c-1.95-0.391-3.542-1.216-4.782-2.479
			c-0.804-0.818-1.136-1.743-0.994-2.772c0.141-1.03,0.577-1.991,1.309-2.884c0.731-0.892,1.729-1.892,2.988-3
			c-3.026-0.071-5.242-1.111-6.649-3.119c-0.866-1.281-1.009-2.51-0.428-3.689c0.581-1.179,1.604-2.042,3.066-2.588
			c1.463-0.546,2.961-0.637,4.493-0.271c2.517,0.615,4.588,2.082,6.212,4.399c1.083-0.934,1.802-1.685,2.159-2.251
			c0.107,0.067,0.239,0.156,0.392,0.267c0.152,0.111,0.424,0.355,0.815,0.731c0.391,0.376,0.733,0.758,1.026,1.144
			c0.292,0.387,0.551,0.872,0.776,1.456c0.225,0.583,0.329,1.164,0.313,1.746c-0.017,0.58-0.219,1.227-0.609,1.936
			s-0.995,1.4-1.812,2.072c-4.929,4.188-6.992,6.714-6.188,7.577c0.305,0.354,0.972,0.502,2.003,0.445
			c1.866-0.093,3.721-0.404,5.569-0.937c1.846-0.532,3.233-1.034,4.159-1.508L292.463,92.479z M274.15,80.338
			c-1.173,1.063-1.104,1.931,0.206,2.601c1.069,0.515,2.471,0.746,4.205,0.696c0.927-0.737,1.635-1.279,2.12-1.626
			c-0.348-0.354-0.729-0.687-1.143-0.997s-0.938-0.645-1.569-1.002c-0.634-0.355-1.29-0.516-1.971-0.478
			C275.318,79.57,274.702,79.838,274.15,80.338z"/>
		<path fill="#704F50" d="M282.88,105.089c-0.456-0.235-0.854-0.574-1.195-1.016c-0.082-0.055-0.188-0.168-0.321-0.34l-0.029-0.037
			c-1.702-2.252,2.947-7.295,13.945-15.129c2.259-1.59,5.174-3.549,8.746-5.877c2.594-1.614,4.243-2.497,4.948-2.649
			c0.793-0.142,1.403,0.091,1.835,0.699c0.645,0.833,1.004,1.908,1.079,3.222c0.084,1.072-0.101,2.254-0.553,3.545
			c-0.611,1.491-1.567,2.916-2.869,4.275c-2.402,2.522-4.968,3.996-7.697,4.42c-1.151,0.184-2.293,0.204-3.424,0.059
			c-2.819,1.982-5.253,3.805-7.301,5.466c-1.12,0.984-1.698,1.646-1.73,1.984c-0.032,0.338,0.458,0.705,1.468,1.1
			c1.416,0.513,2.979,0.824,4.69,0.933c1.71,0.109,3.061,0.094,4.052-0.045l1.486-0.208l0.392,1.344
			c-0.278,0.097-1.071,0.2-2.378,0.309c-1.309,0.108-2.854,0.176-4.636,0.202c-1.784,0.026-3.673-0.15-5.671-0.527
			C285.72,106.442,284.107,105.866,282.88,105.089z M299.131,94.999c1.798-0.058,3.51-0.557,5.135-1.499l0.221-0.171
			c0.122-0.094,0.256-0.189,0.4-0.28c0.145-0.092,0.328-0.234,0.553-0.428c0.223-0.192,0.442-0.39,0.656-0.596
			c0.215-0.204,0.437-0.436,0.67-0.693c0.23-0.258,0.452-0.518,0.663-0.778c0.209-0.261,0.396-0.552,0.56-0.874
			c0.163-0.322,0.298-0.642,0.404-0.959C304.938,90.999,301.852,93.091,299.131,94.999z"/>
	</g>
</g>
<g id="plate-sweet">
	<circle opacity="0.5" fill="#231F20" cx="159.02" cy="214.447" r="127.643"/>
	
		<image overflow="visible" width="848" height="838" xlink:href="sweet2.png"  transform="matrix(0.3085 0 0 0.3085 33.7734 79.6494)">
	</image>
</g>
</svg>
